<?xml version="1.0" encoding="UTF-8" standalone="no"?>
<!-- Created with Inkscape (http://www.inkscape.org/) -->

<svg
   width="98.748817mm"
   height="98.748817mm"
   viewBox="0 0 98.748817 98.748817"
   version="1.1"
   id="svg5"
   xml:space="preserve"
   inkscape:version="1.2 (dc2aedaf03, 2022-05-15)"
   sodipodi:docname="intellify.svg"
   xmlns:inkscape="http://www.inkscape.org/namespaces/inkscape"
   xmlns:sodipodi="http://sodipodi.sourceforge.net/DTD/sodipodi-0.dtd"
   xmlns="http://www.w3.org/2000/svg"
   xmlns:svg="http://www.w3.org/2000/svg"><sodipodi:namedview
     id="namedview7"
     pagecolor="#ffffff"
     bordercolor="#999999"
     borderopacity="1"
     inkscape:showpageshadow="0"
     inkscape:pageopacity="0"
     inkscape:pagecheckerboard="0"
     inkscape:deskcolor="#d1d1d1"
     inkscape:document-units="mm"
     showgrid="false"
     inkscape:zoom="1.829812"
     inkscape:cx="90.44645"
     inkscape:cy="203.02632"
     inkscape:window-width="2542"
     inkscape:window-height="1369"
     inkscape:window-x="1280"
     inkscape:window-y="16"
     inkscape:window-maximized="0"
     inkscape:current-layer="layer1" /><defs
     id="defs2" /><g
     inkscape:label="Calque 1"
     inkscape:groupmode="layer"
     id="layer1"
     transform="translate(-55.625591,-99.125591)"><g
       id="g983"
       transform="translate(1.931276,32.522898)"><path
         style="fill:#000000;fill-opacity:1;stroke-width:0.264583"
         id="path815"
         d="m 86.743579,100.166 c 0.158464,-0.003 0.316981,-0.0125 0.475392,-0.008 0.216271,0.007 0.43157,0.0331 0.647764,0.0419 0.686914,0.0279 1.374685,0.0282 2.06189,0.0477 1.387996,0.0393 1.409771,0.0466 2.828922,0.11139 1.880145,0.0901 3.752355,0.29649 5.63186,0.3941 0.869842,0.0307 1.739523,0.0575 2.609623,0.0418 2.74244,-0.11178 5.48689,-0.0645 8.23041,-0.0315 2.72642,0.0487 5.45238,0.1198 8.17822,0.19328 1.19255,0.0358 2.38474,0.082 3.57712,0.12284 0.71341,-0.12512 1.43261,-0.19413 2.14952,-0.2953 0.64897,-0.13162 1.32447,-0.0594 1.97069,-0.18621 0.2023,-0.0438 0.40702,-0.0653 0.613,-0.0797 0,0 -8.89909,-6.295866 -8.89909,-6.295866 v 0 c -0.1982,0.03539 -0.39607,0.07452 -0.59657,0.09502 -0.63407,0.03112 -1.25665,0.174654 -1.88798,0.235847 -0.70473,0.07258 -1.41203,0.161997 -2.12145,0.151971 -1.08934,0.03941 -2.17889,0.07497 -3.26888,0.09 -2.65649,0.02397 -5.31311,0.0083 -7.96915,-0.0485 -2.86046,-0.05312 -5.725975,0.0031 -8.579281,-0.24902 -0.891132,-0.07311 -1.780283,-0.09659 -2.674294,-0.08562 -1.742911,-0.02021 -3.486608,-0.0259 -5.22749,-0.124653 -2.157486,-0.131707 -4.3264,-0.247838 -6.457547,-0.625965 0,0 8.707321,6.504306 8.707321,6.504306 z" /><g
         id="g927"><g
           id="g871"><g
             id="g348"
             transform="matrix(1.4106974,0,0,1.4106974,53.694315,66.602693)">
	<g
   id="g336">
		<linearGradient
   id="SVGID_1_"
   gradientUnits="userSpaceOnUse"
   x1="0.78979999"
   y1="40.089298"
   x2="33.3172"
   y2="40.089298">
			<stop
   offset="0.2581"
   style="stop-color:#F97A12"
   id="stop258" />
			<stop
   offset="0.4591"
   style="stop-color:#B07B58"
   id="stop260" />
			<stop
   offset="0.7241"
   style="stop-color:#577BAE"
   id="stop262" />
			<stop
   offset="0.9105"
   style="stop-color:#1E7CE5"
   id="stop264" />
			<stop
   offset="1"
   style="stop-color:#087CFA"
   id="stop266" />
		</linearGradient>
		<polygon
   style="fill:url(#SVGID_1_)"
   points="33.3,35 17.7,54.6 0.8,41.2 9.2,25.6 "
   id="polygon269" />
		<linearGradient
   id="SVGID_2_"
   gradientUnits="userSpaceOnUse"
   x1="25.767401"
   y1="24.879999"
   x2="79.424004"
   y2="54.57">
			<stop
   offset="0"
   style="stop-color:#F97A12"
   id="stop271" />
			<stop
   offset="7.179946e-002"
   style="stop-color:#CB7A3E"
   id="stop273" />
			<stop
   offset="0.1541"
   style="stop-color:#9E7B6A"
   id="stop275" />
			<stop
   offset="0.242"
   style="stop-color:#757B91"
   id="stop277" />
			<stop
   offset="0.3344"
   style="stop-color:#537BB1"
   id="stop279" />
			<stop
   offset="0.4324"
   style="stop-color:#387CCC"
   id="stop281" />
			<stop
   offset="0.5381"
   style="stop-color:#237CE0"
   id="stop283" />
			<stop
   offset="0.6552"
   style="stop-color:#147CEF"
   id="stop285" />
			<stop
   offset="0.7925"
   style="stop-color:#0B7CF7"
   id="stop287" />
			<stop
   offset="1"
   style="stop-color:#087CFA"
   id="stop289" />
		</linearGradient>
		<polygon
   style="fill:url(#SVGID_2_)"
   points="49.3,35 38.9,12.3 48.2,1.1 70,18.7 68.7,59.2 41.8,70 25.6,59.6 "
   id="polygon292" />
		<linearGradient
   id="SVGID_3_"
   gradientUnits="userSpaceOnUse"
   x1="63.227699"
   y1="42.915298"
   x2="48.290298"
   y2="-1.7191">
			<stop
   offset="0"
   style="stop-color:#FE315D"
   id="stop294" />
			<stop
   offset="7.840246e-002"
   style="stop-color:#CB417E"
   id="stop296" />
			<stop
   offset="0.1601"
   style="stop-color:#9E4E9B"
   id="stop298" />
			<stop
   offset="0.2474"
   style="stop-color:#755BB4"
   id="stop300" />
			<stop
   offset="0.3392"
   style="stop-color:#5365CA"
   id="stop302" />
			<stop
   offset="0.4365"
   style="stop-color:#386DDB"
   id="stop304" />
			<stop
   offset="0.5414"
   style="stop-color:#2374E9"
   id="stop306" />
			<stop
   offset="0.6576"
   style="stop-color:#1478F3"
   id="stop308" />
			<stop
   offset="0.794"
   style="stop-color:#0B7BF8"
   id="stop310" />
			<stop
   offset="1"
   style="stop-color:#087CFA"
   id="stop312" />
		</linearGradient>
		<polygon
   style="fill:url(#SVGID_3_)"
   points="48.2,1.1 70,18.7 48.7,43.9 38.9,12.3 "
   id="polygon315" />
		<linearGradient
   id="SVGID_4_"
   gradientUnits="userSpaceOnUse"
   x1="10.7204"
   y1="16.473"
   x2="55.523701"
   y2="90.580002">
			<stop
   offset="0"
   style="stop-color:#FE315D"
   id="stop317" />
			<stop
   offset="4.023279e-002"
   style="stop-color:#F63462"
   id="stop319" />
			<stop
   offset="0.1037"
   style="stop-color:#DF3A71"
   id="stop321" />
			<stop
   offset="0.1667"
   style="stop-color:#C24383"
   id="stop323" />
			<stop
   offset="0.2912"
   style="stop-color:#AD4A91"
   id="stop325" />
			<stop
   offset="0.5498"
   style="stop-color:#755BB4"
   id="stop327" />
			<stop
   offset="0.9175"
   style="stop-color:#1D76ED"
   id="stop329" />
			<stop
   offset="1"
   style="stop-color:#087CFA"
   id="stop331" />
		</linearGradient>
		<polygon
   style="fill:url(#SVGID_4_)"
   points="16,33.1 0,27.7 10.1,0 32.1,2.7 53.7,27.4 33.7,58.1 5.6,68.3 10.1,52.5 "
   id="polygon334" />
	</g>
	<g
   id="g346">
		<rect
   x="13.7"
   y="13.5"
   style="fill:#000000"
   width="43.200001"
   height="43.200001"
   id="rect338" />
		<rect
   x="17.700001"
   y="48.599998"
   style="fill:#ffffff"
   width="16.200001"
   height="2.7"
   id="rect340" />
		<polygon
   style="fill:#ffffff"
   points="26.9,22.4 29.4,22.4 29.4,19.1 20.4,19.1 20.4,22.4 23,22.4 23,33.7 20.4,33.7 20.4,37 29.4,37 29.4,33.7 26.9,33.7 "
   id="polygon342" />
		<path
   style="fill:#ffffff"
   d="M 38,37.3 C 36.6,37.3 35.4,37 34.5,36.5 33.6,36 32.8,35.3 32.2,34.6 l 2.5,-2.8 c 0.5,0.6 1,1 1.5,1.3 0.5,0.3 1.1,0.5 1.7,0.5 0.7,0 1.3,-0.2 1.8,-0.7 0.4,-0.5 0.6,-1.2 0.6,-2.3 V 19.1 h 4 v 11.7 c 0,1.1 -0.1,2 -0.4,2.8 -0.3,0.8 -0.7,1.4 -1.3,2 -0.5,0.5 -1.2,1 -2,1.2 -0.8,0.3 -1.6,0.5 -2.6,0.5"
   id="path344" />
	</g>
</g><path
             style="fill:#000000;fill-opacity:1;stroke-width:0.264583"
             id="path817"
             d="m 84.756089,96.645477 c 0.151575,0.01437 0.303996,0.02159 0.454724,0.04312 0.447119,0.06384 0.885645,0.171672 1.328243,0.258892 1.087755,0.21436 2.181452,0.398664 3.270604,0.606036 1.5806,0.234553 3.162398,0.48387 4.751562,0.655487 1.899338,0.205115 3.811217,0.33007 5.714918,0.487741 1.94507,0.139562 3.88351,0.357203 5.82648,0.520311 1.9657,0.165015 3.93265,0.304988 5.89751,0.481674 0.5263,0.04929 1.05232,0.101682 1.57889,0.147873 0.44756,0.03926 0.89489,0.08314 1.34345,0.108471 1.4976,0.08457 3.00414,0.03638 4.50063,-0.04154 1.57721,-0.103548 3.14375,-0.313251 4.70192,-0.57218 0.79792,-0.165981 1.60404,-0.303078 2.38189,-0.550347 0.44589,-0.191275 0.86233,-0.403656 1.04215,-0.890288 0.0578,-0.156446 0.0813,-0.32352 0.12193,-0.485278 -0.0322,-0.135811 -0.0347,-0.282265 -0.0965,-0.407432 -0.0545,-0.110508 -0.13498,-0.218562 -0.24222,-0.279236 -3.23643,-1.83103 -6.47312,-3.664534 -9.76963,-5.385038 -0.18528,-0.0967 -0.41735,-0.02365 -0.62567,-0.04044 -0.42222,-0.034 -0.84336,-0.08025 -1.26512,-0.119473 -1.30756,-0.127156 -2.6174,-0.02774 -3.92466,0.03508 -2.00644,0.09544 -4.01485,0.102462 -6.023,0.102171 -1.40699,-0.02077 -2.81359,-0.04767 -4.22075,-0.03392 -1.60123,0.05692 -3.202443,0.03082 -4.803688,-0.0024 -1.062837,0.0488 -2.126449,0.07421 -3.189753,0.109117 -1.361798,0.09322 -2.715985,-0.03278 -4.065358,-0.206148 -1.170998,-0.137546 -2.342459,-0.277677 -3.517394,-0.378039 -0.743387,-0.06563 -1.484569,0.02212 -2.225419,0.07251 -0.749445,0.06895 -1.488347,0.203602 -2.23335,0.303154 -0.525166,0.116359 -1.025948,0.339612 -1.446469,0.674511 -0.504505,0.460314 -0.835102,1.023408 -1.063559,1.659588 -0.235453,0.954905 -0.562211,1.882211 -0.805844,2.835725 -0.252339,0.943012 -0.420447,1.906325 -0.487506,2.879891 -0.0011,0.323181 -0.01463,0.558242 0.03737,0.88072 0.61599,3.81911 8.620654,5.35499 9.718334,5.91304 0.191654,0.0974 0.381452,-0.1986 0.569238,-0.3033 0.198305,-0.11056 0.392559,-0.22824 0.588838,-0.34236 1.168331,-0.73397 2.383888,-1.38212 3.683291,-1.84956 0.113784,-0.024 0.225473,-0.0818 0.341349,-0.072 0.07346,0.006 0.252744,0.15173 0.187847,0.11675 -3.10791,-1.6752 -6.235745,-3.31431 -9.317247,-5.0376 -0.0763,-0.04267 0.194781,-0.08429 0.260869,-0.02706 0.148614,0.128688 0.05357,0.808252 0.05036,0.862139 -0.128013,1.046951 -0.466132,2.049881 -0.724984,3.067701 -0.04254,0.16725 -0.258141,0.41319 -0.112274,0.50542 3.112117,1.96786 6.391759,3.65738 9.58764,5.48607 1.273091,-1.56402 2.430545,-3.22417 3.500297,-4.93316 0.09077,-0.18397 0.201161,-0.3595 0.272291,-0.55191 0.04028,-0.10896 0.276963,-0.98901 0.09433,-1.10305 -3.149494,-1.966598 -6.361205,-3.848841 -9.688864,-5.496113 -0.260729,-0.129069 -0.552374,0.184034 -0.822164,0.292902 -0.391768,0.158091 -0.774226,0.338336 -1.161341,0.507502 -1.252609,0.577742 -2.541272,1.078196 -3.77235,1.702809 -0.297785,0.15109 -1.118705,0.58547 -1.431686,0.862793 -0.113922,0.100943 -0.188929,0.238704 -0.283396,0.358057 3.223708,1.83179 6.31766,3.91358 9.671116,5.49537 0.286587,0.13518 0.499886,-0.38967 0.755134,-0.57742 1.420519,-1.04491 2.885848,-2.02191 4.393319,-2.93581 0.241382,-0.076 0.471416,-0.24067 0.724144,-0.22788 0.125037,0.006 0.362352,0.33881 0.25328,0.27735 -3.090196,-1.74131 -6.063379,-3.693365 -9.212445,-5.325799 -0.149436,-0.07747 -0.05438,0.334113 -0.11109,0.492593 -0.214416,0.59917 -0.601525,1.295001 -0.886389,1.846856 -0.198707,0.348916 -0.391933,0.701013 -0.596119,1.04676 -0.526307,0.89117 -0.543748,0.88793 -1.078556,1.68677 -0.09118,0.13619 -0.413398,0.32638 -0.27214,0.40948 9.734725,5.72691 7.358629,7.89523 10.472627,4.35611 1.009348,-1.15126 2.060881,-2.26514 3.141405,-3.34971 0.190683,-0.19139 1.088597,-1.12055 1.459463,-1.3286 0.05989,-0.0336 0.135779,0.0206 0.203666,0.0309 -3.183173,-1.73695 -6.235719,-3.73834 -9.549519,-5.210863 -0.270383,-0.120147 -0.282115,0.520287 -0.431377,0.775753 -0.218175,0.373404 -0.442364,0.743326 -0.670766,1.110562 -0.805326,1.294855 -1.684494,2.529108 -2.57085,3.768888 -0.508559,0.60551 -0.904103,1.30091 -1.412595,1.90685 -2.537224,3.02343 -11.140445,-3.66084 9.080796,5.83208 0.28838,0.13538 0.343099,-0.53793 0.538205,-0.78978 0.230121,-0.29703 0.490315,-0.5695 0.73547,-0.85426 0.26206,-0.28043 0.52001,-0.56476 0.786173,-0.8413 0.867476,-0.90128 0.46178,-0.45903 1.196549,-1.17059 0.08654,-0.0838 0.357444,-0.19868 0.252769,-0.25832 -9.805598,-5.58673 -7.373958,-7.913978 -10.402252,-4.3961 -0.316,0.36489 -0.622573,0.73817 -0.947994,1.09469 -1.945283,2.13117 -0.217885,0.0942 -2.160926,2.34035 -0.887101,1.02547 -1.7076,2.09141 -2.509578,3.18342 -2.735567,3.99059 -1.486697,2.03386 8.3454,7.27624 0.327144,0.17443 0.506544,-0.54164 0.767879,-0.80461 0.511537,-0.51473 1.532556,-1.46851 2.014664,-1.92346 0.410237,-0.36361 0.815568,-0.73283 1.230709,-1.09083 0.223756,-0.19295 1.653705,-1.43835 2.076009,-1.60189 0.144592,-0.056 0.587057,0.18509 0.452421,0.10817 -9.452623,-5.40046 -8.304474,-8.5531 -9.483301,-4.51189 -0.186968,0.33608 -0.359924,0.68036 -0.560904,1.00826 -0.452749,0.73866 -1.129501,1.67949 -1.638398,2.37131 -0.771297,1.04855 -1.584047,2.06249 -2.401316,3.07511 -3.098786,3.64851 -2.881701,1.04527 8.444304,6.76412 0.273402,0.13804 0.374923,-0.4846 0.571363,-0.71959 0.623898,-0.74632 0.859647,-0.97107 1.546455,-1.69582 0.269348,-0.27208 0.531918,-0.55103 0.808045,-0.81621 0.184468,-0.17717 0.385829,-0.33599 0.57308,-0.51021 3.009577,-2.80013 -3.512129,-3.03838 -9.208156,-5.92571 -0.237818,-0.12055 -0.400264,0.35241 -0.604002,0.5244 -0.27428,0.23154 -0.553299,0.45741 -0.82995,0.68611 -1.45424,1.16723 -2.957724,2.28866 -4.256452,3.63274 -2.86734,3.38431 3.030534,3.30065 9.122402,6.24146 0.288684,0.13936 0.498692,-0.4033 0.757158,-0.59293 0.642919,-0.47167 1.778809,-1.22774 2.412785,-1.65568 2.152084,-1.54619 0.707618,-0.51768 2.814508,-1.99569 0.550558,-0.38622 1.421461,-1.06815 2.098622,-1.33471 0.164005,-0.0645 0.67772,0.0218 0.524664,-0.0657 -3.078282,-1.75779 -6.258682,-3.33039 -9.38802,-4.99559 0.0405,-0.0157 0.134855,-0.0885 0.12151,-0.0471 -0.13879,0.4299 -0.669555,1.32274 -0.878409,1.65599 -0.188738,0.30115 -0.396957,0.58964 -0.595125,0.88467 -0.701008,1.04368 -0.419766,0.61979 -1.076311,1.62594 -3.078038,4.47179 -2.172113,2.44622 8.030596,7.77335 0.287994,0.15037 0.43402,-0.48357 0.651031,-0.72535 0.936567,-0.82382 1.851475,-1.67909 2.862699,-2.41338 0.28562,-0.2074 0.573119,-0.41762 0.888545,-0.57606 0.134765,-0.0677 0.570317,-0.0121 0.442833,-0.0927 -3.063441,-1.93614 -6.23648,-3.69318 -9.354722,-5.53977 -0.657209,1.01287 -1.60981,1.77088 -2.499222,2.56664 -0.185365,0.16584 -0.399659,0.30635 -0.549289,0.50503 -0.135167,0.17949 -0.192989,0.40583 -0.289483,0.60874 3.140737,1.98375 6.163805,4.16735 9.422212,5.95125 0.255812,0.14005 0.531619,-0.24007 0.799632,-0.35506 1.227942,-0.52685 2.449158,-1.0683 3.675705,-1.59869 0.07744,-0.0359 0.910759,-0.44805 1.111517,-0.46438 0.05825,-0.005 0.185336,0.14179 0.135528,0.11122 -3.11018,-1.90904 -6.12607,-3.97854 -9.318017,-5.74747 -0.154701,-0.0857 -0.242069,0.25861 -0.374205,0.37618 -0.203547,0.18111 -0.421084,0.34586 -0.631627,0.51879 -0.154577,0.10742 -1.235056,0.88261 -1.457584,0.94603 -0.116517,0.0332 -0.226777,-0.0854 -0.340164,-0.12806 3.102642,1.78277 6.113854,3.73507 9.30792,5.34834 0.172003,0.0869 0.170651,-0.34734 0.281757,-0.50478 0.208037,-0.29479 0.448559,-0.56525 0.672838,-0.84788 0.890572,-1.06329 1.932059,-1.97901 2.941258,-2.92401 0.25184,-0.23581 0.89604,-0.82632 1.13804,-1.16363 0.0978,-0.13625 0.15734,-0.29617 0.23601,-0.44426 -3.215297,-1.8113 -6.311785,-3.85192 -9.645895,-5.43389 -0.252423,-0.11977 -0.413615,0.37574 -0.621836,0.56204 -0.279718,0.25026 -0.560264,0.49961 -0.841973,0.74763 -0.352526,0.31037 -0.701046,0.62548 -1.060723,0.92754 -0.98893,0.83051 -1.365353,1.09514 -2.392352,1.87258 -0.994031,0.71657 -2.010471,1.40513 -3.085732,1.99508 -0.191958,0.10532 -1.031415,0.54047 -1.301475,0.62418 -0.133088,0.0413 -0.276294,0.0363 -0.414441,0.0545 -0.08582,-0.0508 -0.192899,-0.0765 -0.25745,-0.15251 -0.0782,-0.0921 -0.257619,-0.38725 -0.151566,-0.32933 3.025161,1.65238 5.973585,3.44161 8.969779,5.14595 0.114552,0.0652 -0.221035,-0.14444 -0.323323,-0.22754 -0.159544,-0.12961 -0.413967,-0.39438 -0.561271,-0.54338 -2.945855,-2.95207 -3.901403,-2.70261 -10.148663,-6.08477 -0.103174,-0.0559 -0.227782,0.0679 -0.326652,0.1311 -0.144028,0.092 -0.262231,0.21929 -0.393348,0.32893 -0.732464,0.70168 -1.267349,1.56768 -1.841277,2.395 -0.252947,0.40252 -0.629119,0.72854 -0.864609,1.14312 -0.06529,0.11495 -0.113403,0.23884 -0.170103,0.35827 3.13771,1.92814 6.193888,3.99573 9.413129,5.78444 0.1592,0.0885 0.2979,-0.2106 0.456115,-0.30081 0.397394,-0.22657 0.8182,-0.40945 1.224024,-0.62055 0.978971,-0.50925 0.573537,-0.28958 1.590286,-0.885 1.772867,-1.09431 3.462088,-2.31333 5.243486,-3.39457 1.002741,-0.58467 2.037839,-1.10396 3.177145,-1.3573 0.62647,-0.1393 0.95422,-0.16012 1.590469,-0.23322 0.770546,-0.0677 1.544096,-0.0917 2.317356,-0.0933 0.22372,-5.3e-4 0.44754,0.0136 0.67113,0.006 0.45539,-0.0158 0.77635,-0.0705 1.22395,-0.13154 0.72148,-0.0728 1.36159,-0.35308 2.00838,-0.65597 0.50209,-0.23513 0.2923,-0.2598 0.65916,-0.10213 -3.11045,-1.74799 -6.208773,-3.51774 -9.331357,-5.24396 -0.04189,-0.0232 0.08387,0.0786 0.07113,0.12473 -0.06246,0.22621 -0.17563,0.436 -0.283514,0.64441 -0.371668,0.71796 -0.847802,1.37773 -1.307626,2.0401 -1.624883,3.93073 -0.831684,1.49838 9.736447,5.59337 0.39242,0.15205 0.65003,-0.53498 0.9654,-0.81365 0.42427,-0.3749 0.83379,-0.76617 1.25307,-1.14664 1.39392,-1.26492 1.18144,-1.0679 2.55228,-2.26073 0.85104,-0.74093 1.72065,-1.46017 2.56483,-2.20902 0.16716,-0.14829 0.3198,-0.31386 0.49754,-0.44928 0.0991,-0.0755 0.43643,-0.11868 0.32773,-0.17948 -3.11853,-1.74436 -6.33737,-3.30298 -9.50606,-4.95447 0.041,0.0332 0.13116,0.0475 0.12307,0.0997 -0.0855,0.55177 -0.5745,1.66402 -0.76082,2.11935 -0.55051,1.34528 -1.14658,2.66234 -1.76106,3.97936 -0.23705,0.67896 -0.65597,1.2737 -0.933856,1.93319 -1.647481,3.9098 5.709516,4.47064 9.424346,6.18115 0.35065,0.16145 0.59159,-0.49609 0.88659,-0.74508 0.37457,-0.31617 0.74808,-0.6336 1.12213,-0.95039 1.27526,-1.11303 2.50058,-2.28659 3.79619,-3.37645 0.27996,-0.23549 0.57101,-0.45762 0.86266,-0.67848 0.14397,-0.10902 0.59295,-0.20908 0.44374,-0.31081 -3.03136,-2.0668 -6.24662,-3.85008 -9.36993,-5.77512 -0.2846,0.24234 -0.55782,0.49873 -0.85381,0.72702 -1.30557,1.0069 -2.27587,1.64096 -3.71211,2.51993 -1.1557,0.70728 -2.782559,1.64118 -4.024399,2.24836 -0.451382,0.2207 -0.921592,0.4006 -1.382385,0.6009 -0.215162,0.0279 -0.82809,-0.0334 -0.645485,0.0838 3.07236,1.97147 6.118129,4.03637 9.436669,5.55733 0.37453,0.17166 0.61523,-0.54918 0.94147,-0.80079 1.39333,-1.07458 2.84846,-1.91636 4.3794,-2.76988 0.16686,-0.0707 1.45241,-0.72561 1.87564,-0.59715 0.13658,0.0414 0.30276,0.45987 0.17882,0.38908 -20.809864,-11.88506 -7.42954,-8.6047 -9.28585,-5.18419 -0.0967,0.1781 -0.21624,0.34277 -0.32436,0.51415 -2.66633,3.56852 -2.44589,1.05615 8.89701,6.3359 0.32915,0.15321 0.47435,-0.54993 0.72021,-0.81708 4.25187,-4.62007 -2.7805,3.12928 2.5652,-2.78024 1.79696,-2.10959 3.45237,-4.33892 5.2742,-6.42742 0.13314,-0.15263 0.58484,-0.33718 0.41351,-0.4452 -3.09733,-1.95269 -6.39781,-3.56287 -9.59671,-5.3443 -0.97407,1.39667 -2.02065,2.74436 -3.11266,4.05069 -0.52596,0.6292 -1.362,1.65279 -2.07084,2.18136 -0.14127,0.10535 -0.32625,0.13335 -0.48938,0.20002 3.14746,1.70787 6.1405,3.73761 9.44237,5.12361 0.32877,0.138 0.25325,-0.66739 0.4046,-0.99024 0.24547,-0.52365 0.50859,-1.03925 0.78492,-1.54729 0.86,-1.58112 1.82589,-3.10413 2.80037,-4.61595 2.84167,-4.19239 1.86273,-2.31105 -8.13821,-7.55528 -0.35766,-0.18754 -0.52193,0.61691 -0.79889,0.91081 -0.38544,0.40901 -1.04751,0.99679 -1.45931,1.37168 -0.22783,0.17146 -0.41545,0.41713 -0.6835,0.51438 -0.10703,0.0388 -0.40334,-0.21141 -0.30375,-0.15622 3.11618,1.7268 6.06704,3.79617 9.35366,5.17114 0.35688,0.1493 0.27551,-0.72473 0.45274,-1.0686 0.37616,-0.72981 1.36858,-2.27491 1.78449,-2.93726 0.31605,-0.46885 0.61556,-0.94928 0.94815,-1.40655 0.2478,-0.3407 0.5061,-0.67543 0.79151,-0.9853 0.14609,-0.15862 0.28462,-0.37776 0.49722,-0.4139 0.10896,-0.0185 0.0859,0.38329 -0.0117,0.33137 -9.9241,-5.280812 -7.49862,-8.464411 -9.98284,-4.651405 -0.65375,0.857186 -1.34937,1.683885 -2.10382,2.454605 -0.20719,0.21166 -0.4094,0.43044 -0.63965,0.61675 -0.49999,0.40458 -0.40946,0.39116 -0.55809,0.0202 3.11056,1.79497 6.10169,3.815 9.33169,5.38491 0.23006,0.11182 0.15931,-0.48752 0.26795,-0.7191 0.15307,-0.32629 0.33435,-0.63884 0.51533,-0.95052 0.54937,-0.94613 1.1697,-1.83918 1.81622,-2.72003 2.82183,-3.53355 1.76113,-1.23304 -8.82148,-6.38783 -0.26826,-0.130667 -0.35133,0.482405 -0.52763,0.723138 -1.04295,1.424072 -0.52439,0.749046 -1.73143,2.221037 -0.95819,1.070689 -1.74401,2.326265 -2.85274,3.259675 -0.12455,0.10485 -0.56719,0.15787 -0.426,0.23893 9.5969,5.50925 7.68627,8.04233 10.02175,4.30093 0.14169,-0.19933 0.29544,-0.39062 0.42506,-0.598 2.2836,-3.65336 -3.68778,-3.31358 -9.63715,-5.42218 -0.41671,-0.147693 -0.54258,0.69822 -0.81984,1.04259 -1.12887,1.40213 -1.32854,1.61453 -2.5445,3.04052 -2.00035,2.36856 -4.168314,4.60428 -6.043749,7.07636 -0.614003,0.81994 -0.882137,1.55074 -1.021906,2.54556 -0.09805,0.5081 -0.168021,1.0241 -0.292772,1.52683 -0.09633,0.38818 -0.214603,0.77065 -0.313674,1.15815 0,0 9.394941,5.09927 9.394941,5.09927 v 0 c 0.16436,-0.59124 0.14396,-0.5509 0.34057,-1.12788 0.0399,-0.11696 0.27831,-0.7665 0.31954,-0.92457 0.0582,-0.22326 0.0537,-0.45995 0.12154,-0.68142 0.11569,-0.77894 0.18066,-1.55762 0.589,-2.25778 1.44113,-2.66536 3.36321,-5.02984 5.39797,-7.26329 1.02005,-1.04193 1.74123,-1.84857 2.87106,-2.75025 0.32417,-0.25872 1.35968,-0.44352 1.03104,-0.69655 -2.78593,-2.14504 -6.10157,-3.50653 -9.02571,-5.45897 -0.14349,-0.0958 0.38383,-0.43802 0.43883,-0.27448 0.0714,0.21241 -0.22341,0.38856 -0.33511,0.58285 -2.80449,3.35697 -1.07249,0.84627 8.31293,6.64717 0.1295,0.08 0.0778,-0.29799 0.15306,-0.43033 0.38239,-0.67215 1.09942,-1.55407 1.56764,-2.10941 0.35211,-0.41763 0.72476,-0.8175 1.08714,-1.22625 0.64316,-0.66703 1.26697,-1.37725 2.01688,-1.93338 0.16526,-0.12255 0.71653,-0.16271 0.54898,-0.28209 -2.91421,-2.0763 -6.03291,-3.849484 -9.04936,-5.774228 -0.004,0.08329 0.014,0.170966 -0.013,0.249876 -0.0679,0.198276 -0.17824,0.379362 -0.26736,0.569044 -0.55823,0.948775 -1.13087,1.878068 -1.75714,2.784192 -0.2155,0.311814 -0.43548,0.620538 -0.65702,0.928106 -0.18126,0.25165 -0.79305,0.55517 -0.55132,0.74948 2.83904,2.28217 6.04577,4.0648 9.06865,6.0972 1.08186,-1.34913 2.22308,-2.64795 3.40296,-3.91224 3.16486,-3.202186 1.14111,-0.72157 -8.19432,-6.883392 -0.0984,-0.06497 -0.0213,0.236731 -0.0567,0.349221 -0.0656,0.208341 -0.14693,0.412517 -0.24456,0.607896 -0.45554,0.911635 -0.96084,1.665727 -1.50505,2.537971 -0.8937,1.288234 -1.0889,1.611514 -2.03755,2.821034 -0.28448,0.36272 -1.22251,0.7618 -0.87819,1.06828 12.76625,11.36319 6.40638,8.63226 9.29696,5.8053 0.20474,-0.20024 0.42318,-0.38597 0.63477,-0.57896 0.23707,-0.20003 1.19101,-1.05197 1.52743,-1.15702 0.11402,-0.0356 0.40868,0.24706 0.30984,0.18001 -2.92124,-1.98158 -5.85179,-3.94938 -8.77769,-5.92407 -0.008,0.17334 0.0225,0.35246 -0.0226,0.52 -0.0933,0.34686 -0.2585,0.67026 -0.38775,1.00539 -0.83601,1.58979 -1.68989,3.15286 -2.72032,4.62869 -0.33247,0.47618 -0.68544,0.9381 -1.04653,1.39296 -0.25177,0.31715 -1.10543,0.66661 -0.79111,0.92191 2.79993,2.27412 6.07489,3.89108 9.11233,5.83663 0.0766,-0.15989 0.13603,-0.32924 0.22987,-0.47967 0.45875,-0.73548 1.25722,-1.75379 1.77679,-2.37745 0.71723,-0.86094 1.67489,-1.95309 2.54737,-2.67729 0.30699,-0.25481 0.66594,-0.43955 0.99891,-0.65932 -2.94154,-1.92555 -5.81649,-3.95687 -8.82461,-5.77665 -0.13468,-0.0815 0.0974,0.31879 0.0516,0.46937 -0.12528,0.41178 -0.33033,0.7981 -0.54985,1.16832 -0.33949,0.57253 -0.72856,1.11496 -1.12228,1.65165 -1.39472,1.90121 -1.48539,1.89012 -3.12106,3.63195 -1.04397,0.89407 -1.84137,1.65964 -2.99418,2.37612 -0.27857,0.17313 -1.14647,0.22314 -0.88765,0.42461 2.80481,2.18338 5.95097,3.88875 8.92646,5.83313 0.0298,-0.0934 0.0423,-0.19412 0.0892,-0.28012 0.0957,-0.17521 0.22338,-0.331 0.33507,-0.4965 0.029,-0.0401 0.84469,-1.15859 0.82557,-1.17362 -8.90841,-7.00412 -6.33933,-7.88815 -11.02833,-4.88836 -1.47896,0.94713 -2.953805,1.90281 -4.51672,2.70903 -0.425461,0.21947 -1.651497,0.28417 -1.300395,0.60961 7.880315,7.30433 6.472705,8.87433 8.868925,5.75727 1.60451,-1.13705 3.2462,-2.19778 4.96079,-3.16484 1.5525,-0.87564 2.65428,-1.46553 4.29916,-2.09425 0.33848,-0.12938 0.69733,-0.19733 1.046,-0.29599 -2.94058,-1.97336 -5.81407,-4.05054 -8.82173,-5.92007 -0.10855,-0.0675 -0.0415,0.26036 -0.11279,0.36648 -0.19157,0.28532 -0.42983,0.53712 -0.66325,0.78937 -1.12193,1.21249 -2.36915,2.30844 -3.74003,3.23221 -0.42186,0.237 -0.81919,0.52425 -1.26557,0.711 -0.25094,0.10499 -1.02229,-0.005 -0.80144,0.15379 2.80935,2.02005 5.84022,3.71267 8.76032,5.56901 -0.0921,-0.0861 -0.27774,-0.13226 -0.27636,-0.25835 0.002,-0.19455 0.70613,-1.98663 0.71773,-2.01709 0.72885,-1.71724 1.48446,-3.42985 2.40196,-5.05696 0.17149,-0.30413 0.36869,-0.5932 0.54241,-0.89607 0.16396,-0.28584 0.31356,-0.57968 0.47034,-0.86952 -3.2162,-1.73144 -6.36797,-3.58832 -9.64861,-5.19433 -0.13015,-0.0637 -0.18393,0.22396 -0.27612,0.33575 -0.82121,0.99588 -1.68845,1.95111 -2.61516,2.85084 -1.214783,1.15452 -2.413536,2.31092 -3.874658,3.15922 -0.349279,0.20279 -1.415344,0.25742 -1.099484,0.50912 7.520972,5.99313 12.093282,4.63064 8.383502,5.66211 0.084,-0.18621 0.15361,-0.37959 0.25194,-0.55863 0.42946,-0.78197 1.01211,-1.46198 1.48025,-2.2178 0.15527,-0.25069 0.67056,-0.60363 0.42945,-0.77339 -2.9947,-2.10849 -6.30776,-3.72397 -9.461644,-5.58596 -0.760291,0.47646 -1.619105,0.69709 -2.506734,0.79457 -1.374497,0.1252 -2.761912,0.10406 -4.128106,0.32405 -0.684564,0.12584 -1.010261,0.16529 -1.680475,0.37191 -1.165563,0.35932 -2.20305,0.98794 -3.230173,1.63091 -0.845778,0.52282 -0.959006,0.58178 -1.780839,1.13342 -1.133033,0.76054 -2.253409,1.54689 -3.461875,2.18662 -0.76373,0.36829 -1.524931,0.75914 -2.33916,1.00768 -0.19042,0.0581 -0.381875,0.12909 -0.580681,0.13985 -0.108526,0.006 -0.208642,-0.061 -0.312965,-0.0915 3.020642,1.91581 6.041287,3.83163 9.061929,5.74744 -0.05167,0.0381 -0.113877,0.16345 -0.155006,0.11419 -0.0436,-0.0522 0.06564,-0.11937 0.103476,-0.17591 0.231296,-0.34558 0.521242,-0.65245 0.708091,-1.02762 0.34708,-0.61121 0.703395,-1.31218 1.308002,-1.71207 0.0682,-0.0451 0.151231,-0.0622 0.226846,-0.0934 0.04621,0.0394 0.542213,0.45088 0.226369,0.27147 -3.056514,-1.73616 -6.085599,-3.5202 -9.123529,-5.28868 -0.07314,-0.0426 0.15566,0.0675 0.228521,0.1106 0.22129,0.13073 0.308925,0.22502 0.506024,0.39754 0.260998,0.22822 0.339037,0.28243 0.57428,0.54782 0.09307,0.10499 0.145241,0.25426 0.265407,0.32668 3.162739,1.90611 6.330399,3.80711 9.561139,5.59554 0.129998,0.072 0.298246,-0.0204 0.441952,-0.0582 0.141232,-0.0371 0.270634,-0.1098 0.40595,-0.1647 1.625177,-0.90908 3.03485,-2.15178 4.535726,-3.2428 1.184394,-0.91448 2.358612,-1.85596 3.611914,-2.67638 0.310724,-0.2034 0.622424,-0.40868 0.955401,-0.57312 0.20004,-0.0988 0.81785,-0.0847 0.63478,-0.21219 -2.904898,-2.02333 -6.006947,-3.74776 -9.01042,-5.62165 0.358036,-0.0554 0.369982,-0.12514 0.02787,0.42334 -0.403416,0.64678 -0.839494,1.07105 -1.386398,1.62309 -0.901989,0.91045 -1.195338,1.15187 -2.149007,2.01451 -0.299088,0.2796 -0.609153,0.5479 -0.897266,0.83879 -0.223049,0.22519 -0.882819,0.5107 -0.634754,0.70799 14.952635,11.8926 6.152074,8.2074 9.418897,5.71708 0.295976,-0.22562 1.194202,-0.81531 1.476399,-1.00307 0.253018,-0.16475 0.506944,-0.32812 0.75906,-0.49426 0.199007,-0.13113 0.781976,-0.25066 0.594284,-0.39753 -2.846494,-2.22741 -5.960888,-4.08942 -8.941332,-6.13413 -0.04628,0.0587 -0.08116,0.12853 -0.138845,0.17606 -0.195263,0.16089 -0.765869,0.46461 -0.935535,0.55998 -0.836491,0.42248 -1.682039,0.87104 -2.591748,1.11948 -0.313338,0.0856 -0.632891,0.1754 -0.957672,0.17999 -0.217969,0.003 -0.423148,-0.10502 -0.634725,-0.15752 2.902082,1.89967 5.804165,3.79934 8.706247,5.69902 -0.426985,-0.12679 -0.319085,-0.0191 0.203197,-0.57932 0.869768,-0.93299 1.856089,-1.76179 2.87895,-2.51988 -3.026804,-1.96119 -5.982536,-4.03667 -9.080407,-5.88356 -0.115719,-0.069 -0.13044,0.23925 -0.223221,0.33693 -0.523463,0.55111 -1.244894,1.07966 -1.84463,1.51459 -0.361236,0.26197 -0.725927,0.51976 -1.101043,0.76145 -0.297077,0.1914 -0.609449,0.35796 -0.914172,0.53694 -4.015439,-0.16253 -0.958234,-0.11615 8.544872,5.86097 0.06015,0.0378 -0.01005,-0.14541 0.01241,-0.21282 0.04907,-0.14724 0.129487,-0.28216 0.198829,-0.421 0.233733,-0.468 0.390231,-0.73681 0.651915,-1.20912 0.500033,-0.864 1.019069,-1.70885 1.589016,-2.52928 0.207811,-0.29914 0.421738,-0.59403 0.637661,-0.88737 0.182994,-0.2486 0.388409,-0.48105 0.558999,-0.73832 0.200935,-0.30303 0.369152,-0.62654 0.553728,-0.9398 -3.196151,-1.75439 -6.315194,-3.65723 -9.588455,-5.26317 -0.162676,-0.0798 -0.270822,0.24086 -0.408829,0.35828 -0.257551,0.21914 -0.517348,0.43563 -0.777774,0.65134 -1.228069,1.01721 -2.480718,2.00713 -3.872032,2.79784 -0.908357,0.52075 -1.682742,1.01274 -2.65607,1.39666 -0.274291,0.10819 -1.089073,0.0598 -0.852543,0.23588 2.836717,2.11135 5.94355,3.8332 8.908595,5.76018 0.02739,0.0178 -0.100214,0.001 -0.09299,-0.0309 0.02458,-0.10848 0.110443,-0.19312 0.165664,-0.28968 1.059826,-1.41447 2.424657,-2.56218 3.887594,-3.5436 0.306631,-0.1753 0.59961,-0.37701 0.919898,-0.52591 0.215665,-0.10026 0.871683,-0.0776 0.679487,-0.21764 -2.878272,-2.09785 -5.95785,-3.90494 -8.961585,-5.81884 -0.04783,-0.0305 0.09312,0.10189 0.07158,0.15436 -0.197757,0.48192 -0.822441,1.06184 -1.124968,1.38836 -0.373192,0.34386 -1.245661,1.18831 -1.714521,1.4759 -0.154935,0.095 -0.666459,0.0652 -0.518052,0.17017 2.917428,2.06291 5.998578,3.88394 8.997865,5.82591 -7.93e-4,-0.10336 -0.04516,-0.2161 -0.0021,-0.31009 0.125145,-0.27332 0.327056,-0.50447 0.490585,-0.75671 1.549823,-2.21927 3.148406,-4.40092 4.814705,-6.53454 2.62092,-3.85423 1.205304,-1.1404 -8.621673,-6.7714 -0.15621,-0.0895 -0.243258,0.26564 -0.370692,0.39282 -0.493786,0.49279 -1.38675,1.3371 -1.870265,1.76577 -0.405921,0.35987 -0.825564,0.70397 -1.238346,1.05595 -0.319148,0.23062 -1.783252,1.35684 -2.313593,1.52189 -0.127153,0.0396 -0.478708,-0.22868 -0.368895,-0.15335 2.917409,2.00137 5.865656,3.95742 8.798486,5.93613 0.02127,-0.14164 0.01521,-0.29019 0.0638,-0.42493 0.09272,-0.25714 0.237228,-0.49256 0.355843,-0.73884 0.503497,-0.86159 0.656384,-1.17187 1.278064,-2.00998 1.211578,-1.63338 2.667799,-3.08356 4.252611,-4.35286 3.732549,-2.61883 1.00625,-0.32926 -8.122613,-6.37074 -0.04955,-0.0328 0.192318,-0.0582 0.178253,-5.3e-4 -0.0462,0.18962 -0.18333,0.34642 -0.300564,0.50245 -0.195527,0.26022 -0.416322,0.5007 -0.634611,0.74215 -0.254238,0.28121 -0.521674,0.5502 -0.782511,0.8253 -0.281167,0.25796 -0.544909,0.53632 -0.843507,0.77388 -0.212225,0.16885 -0.901325,0.27939 -0.683631,0.44112 2.866808,2.12981 6.021967,3.84117 9.032949,5.76175 0.02376,-0.14597 0.01048,-0.30312 0.0713,-0.43793 0.142163,-0.31501 1.093811,-1.78467 1.226185,-1.99278 0.849829,-1.25976 1.695418,-2.52116 2.63834,-3.71451 0.270121,-0.34186 0.551749,-0.67461 0.836748,-1.00417 0.204412,-0.23638 0.87521,-0.49808 0.63114,-0.69325 -2.818617,-2.253838 -6.005674,-4.003681 -9.008513,-6.005522 -0.0042,0.07384 0.02024,0.155292 -0.01267,0.221531 -0.203555,0.40967 -0.908079,1.25526 -1.129467,1.513514 -0.987885,1.152404 -2.063263,2.231957 -3.28355,3.140067 -3.780552,2.41861 -1.169318,0.39401 8.018163,6.2534 0.07495,0.0478 -0.199472,-0.10987 -0.180149,-0.19664 0.06458,-0.29 0.261818,-0.53353 0.401182,-0.79593 0.486196,-0.9154 0.61731,-1.10372 1.165167,-2.01245 0.385424,-0.6135 0.791427,-1.21419 1.165799,-1.8345 0.140798,-0.2333 0.612542,-0.54792 0.396986,-0.71462 -8.337359,-6.447505 -6.415193,-8.167754 -10.107607,-5.331489 -1.087816,0.77398 -2.178283,1.539806 -3.342508,2.197364 -0.367567,0.207605 -0.737338,0.413777 -1.123058,0.585322 -0.278209,0.123732 -1.105762,0.113813 -0.863423,0.298151 2.804896,2.133572 5.902032,3.852812 8.853046,5.779212 -0.06806,0.0275 -0.224285,0.15298 -0.204184,0.0824 0.08468,-0.29735 0.918681,-0.77925 0.99836,-0.82616 0.652362,-0.38399 1.619046,-0.83176 2.30922,-1.10002 0.444418,-0.17274 0.901723,-0.31028 1.352587,-0.46542 0.415422,-0.0727 0.825084,-0.19649 1.246264,-0.21819 0.251711,-0.013 0.959667,0.25118 0.747257,0.1155 -2.898804,-1.85165 -5.951127,-3.454629 -8.85676,-5.295542 -0.106873,-0.06771 0.249232,-0.115752 0.37084,-0.08086 0.278379,0.07989 0.02777,0.670872 0.02162,0.697407 -0.09959,0.218366 -0.187111,0.442645 -0.29876,0.655098 -0.265009,0.504258 -0.719032,1.217967 -1.049446,1.667387 -0.289875,0.39428 -0.892754,1.16283 -1.326002,1.45644 -0.121412,0.0823 -0.284242,0.0725 -0.426363,0.1087 3.000574,1.83918 6.00695,3.66892 9.001721,5.51753 0.08736,0.0539 -0.257517,-0.0319 -0.277977,-0.13255 -0.04545,-0.22348 0.06779,-0.45128 0.1138,-0.67465 0.168484,-0.818 0.405096,-1.62255 0.670232,-2.41375 0.05985,-0.216 0.128789,-0.42969 0.179549,-0.64801 0.01476,-0.0635 0.220647,-1.20745 0.201091,-1.21959 -8.635682,-5.360241 -6.502106,-6.897174 -10.307796,-4.956574 -1.201192,0.632246 -2.358448,1.35646 -3.619577,1.867358 -0.174551,0.04084 -0.344392,0.123258 -0.523655,0.122507 -0.120999,-5.29e-4 -0.444114,-0.188428 -0.340384,-0.126127 2.982725,1.791496 6.011593,3.505896 8.982557,5.316846 0.08769,0.0534 -0.21526,0.0181 -0.306769,-0.0286 -0.222967,-0.11359 -0.197855,-0.37556 -0.225203,-0.57064 -0.02705,-0.91244 0.109953,-1.82035 0.318178,-2.7075 0.110738,-0.4821 0.113868,-0.54736 0.269181,-1.01734 0.156282,-0.472904 0.365104,-0.92663 0.528027,-1.396192 0.02963,-0.08539 0.04438,-0.175244 0.06657,-0.262863 0.146394,-0.41487 0.317219,-0.813546 0.732903,-1.024745 0.376026,-0.162816 0.754068,-0.292846 1.167615,-0.322122 0.691991,-0.130223 1.392946,-0.220895 2.096264,-0.258593 0.731496,-0.02598 1.459855,0.01953 2.190022,0.06304 1.111086,0.05628 2.21891,0.153964 3.322945,0.292304 1.415349,0.138925 2.834464,0.202642 4.257024,0.162338 1.03971,-0.02154 2.07569,-0.121624 3.11597,-0.127183 1.59994,-0.03472 3.19971,-0.05589 4.79968,-0.0011 1.36971,0.01241 2.73865,-0.01442 4.10769,-0.05854 2.02073,-0.03358 4.04131,-0.07554 6.06226,-0.09572 1.32108,-0.004 2.64343,0.02962 3.9589,0.160226 0.39134,0.04572 0.8195,0.08488 1.20294,0.176525 0.20637,0.04932 0.7909,0.294995 0.60865,0.186346 -2.92642,-1.74457 -5.90394,-3.401943 -8.85591,-5.102915 0.0987,0.01537 0.19625,0.05106 0.29597,0.04608 0.088,-0.0044 0.1692,-0.04905 0.25381,-0.07357 0.10702,-0.104169 0.24634,-0.186568 0.3138,-0.319821 0.0251,-0.04961 -0.10424,0.03888 -0.15538,0.0607 -0.26271,0.112101 -0.0839,0.04877 -0.36937,0.136649 -0.74243,0.198866 -1.49473,0.350401 -2.24461,0.518181 -1.45118,0.321374 -2.92487,0.536721 -4.41183,0.59408 -0.74197,0.0342 -1.26066,0.06388 -2.00667,0.07448 -1.67174,0.02376 -3.34113,-0.08734 -5.01078,-0.152061 C 99.992666,93.47465 96.117745,93.047713 92.231992,92.74722 88.655183,92.434419 85.072166,92.061793 81.5576,91.305614 79.712729,90.91991 77.885371,90.422409 76.009668,90.206953 c 0,0 8.746435,6.43845 8.746435,6.43845 z" /><path
             style="fill:#000000;fill-opacity:1;stroke-width:0.264583"
             id="path819"
             d="m 97.542949,131.56763 c -0.591542,0.44621 -1.270336,0.77393 -1.8201,1.27635 -0.309573,0.28291 -0.512514,0.54769 -0.777079,0.86623 -0.248192,0.35333 -0.498181,0.71464 -0.572603,1.15078 -0.02291,0.1343 -0.09861,0.74852 0.111003,0.87079 3.194762,1.86362 6.47777,3.57166 9.71666,5.35749 0.14808,0.004 0.73922,0.0303 0.89143,0.003 0.0221,-0.004 1.17972,-0.33494 0.75506,-0.65285 -8.624524,-6.45659 -5.72416,-7.08945 -9.776459,-6.01766 -1.136746,0.19121 -2.287469,0.2973 -3.409329,0.56853 -4.140133,0.9512 -0.699129,0.35188 8.629918,5.9492 0.0617,0.037 0.11354,-0.0885 0.17035,-0.13276 0.32701,-0.25463 0.16694,-0.0903 0.44051,-0.52469 1.06864,-4.23293 0.44111,-0.85763 -9.414852,-6.29303 -0.168071,-0.0927 -0.38304,0.0271 -0.574908,0.0321 -0.800793,0.021 -1.601983,-0.02 -2.40193,-0.0499 -0.527772,-0.0566 -1.131435,0.0306 -1.636506,-0.18899 -0.07945,-0.0345 -0.122859,-0.13941 -0.207894,-0.15596 -0.135376,-0.0263 -0.274772,0.0243 -0.412258,0.0352 -0.182784,0.0145 -0.365691,0.0275 -0.548536,0.0413 -0.889659,0.17539 -0.748636,0.16145 -1.693244,0.28652 -0.289618,0.0383 -0.578318,0.0928 -0.870254,0.10396 -0.199662,0.008 -0.411803,0.0257 -0.597498,-0.048 -0.09883,-0.0393 -0.272719,-0.31785 -0.182372,-0.26176 3.069693,1.9058 6.094598,3.88282 9.141897,5.82423 -0.02241,0.30848 0.454183,-0.21924 0.531651,-0.3484 0.05642,-0.0941 0.468886,-0.96314 0.231166,-1.10905 -3.141258,-1.92808 -6.452396,-3.56463 -9.678596,-5.34694 -0.112548,0.002 -0.225496,0.0165 -0.337642,0.007 -0.05607,-0.005 -0.107472,-0.0334 -0.161208,-0.0502 3.037805,2.08827 5.995794,4.29768 9.113416,6.26479 0.160584,0.10133 0.361786,-0.11544 0.543084,-0.17187 1.204397,-0.37486 0.753504,-0.23843 2.073029,-0.60104 1.705369,-0.44142 3.440893,-0.75317 5.197495,-0.88413 0.11085,-0.005 0.81518,-0.0551 0.96277,0.007 0.0839,0.0353 0.23835,0.26847 0.16102,0.22048 -3.068617,-1.90401 -6.112135,-3.84837 -9.151438,-5.79884 -0.212883,-0.13662 0.56759,-0.42007 -0.367773,0.0919 -0.971966,0.54266 -2.050415,0.83522 -3.059922,1.29335 -0.111665,0.0649 -0.472099,0.25163 -0.559954,0.38116 -2.410814,3.55467 8.475075,6.10087 9.082522,6.46308 0.118157,0.0705 0.268933,-0.0625 0.406029,-0.0739 0.186552,-0.0155 0.374367,-0.004 0.561552,-0.007 1.415288,0.0314 2.827064,0.16016 4.239444,0.25449 0.28651,0.0602 0.59154,-0.004 0.87887,0.0559 0.0705,0.0148 0.25453,0.13392 0.19505,0.0932 -4.96513,-3.3958 -5.725233,-6.63405 -9.746437,-6.12575 -0.710102,0.10929 -1.432306,0.0657 -2.14545,0.12444 -0.458838,0.0378 -0.914964,0.10388 -1.37337,0.14655 -1.119527,0.0893 -2.241931,0.12871 -3.36467,0.14007 -0.806733,0.01 -1.613318,-0.0111 -2.419977,-0.0146 -0.652155,-0.008 -1.30439,-0.003 -1.956601,-0.005 -0.645504,-0.005 -1.291,0.002 -1.936504,0.002 -0.507005,-0.006 -1.013907,-0.0155 -1.520926,-0.0197 -0.350933,-0.006 -0.701849,-0.005 -1.052798,-0.004 -0.366615,0.006 -0.733256,-0.002 -1.099878,0.001 -0.339765,5.3e-4 -0.679524,-0.002 -1.019286,-0.004 -0.474732,0.1879 -0.872848,0.49545 -1.208154,0.87504 -0.231455,0.27531 -0.450659,0.56555 -0.548206,0.91878 -0.03225,0.11678 -0.04389,0.23829 -0.06583,0.35743 0.0055,0.10847 -0.0041,0.21875 0.01635,0.32541 0.02646,0.13793 0.103745,0.29319 0.231727,0.36733 3.162297,1.83212 6.344751,3.62925 9.512107,5.45261 0.363341,0.20917 -0.09194,0.009 0.288856,0.16397 0.210529,0.002 0.415853,0.0337 0.611399,0.11459 0.17621,0.0728 0.250621,0.14962 0.440637,0.19177 0.09376,0.0208 0.191109,0.0192 0.286663,0.0289 0.567722,0.067 1.141563,0.0708 1.712777,0.0807 0.147709,0.0228 0.298154,-0.016 0.445895,2.4e-4 0.06745,0.007 0.130757,0.0379 0.197874,0.0479 0.289602,0.0433 0.594392,0.0375 0.886034,0.0424 0.642001,0.0564 1.264343,-0.0649 1.895348,-0.15795 1.013896,-0.14957 0.149913,0.008 1.205172,-0.20132 1.088554,-0.16805 2.149969,-0.46887 3.213269,-0.74959 0.755573,-0.24967 1.528736,-0.44297 2.281319,-0.70186 1.430333,-0.49204 -0.204946,0.0378 1.168128,-0.39988 0.648573,-0.1717 1.264936,-0.44651 1.914232,-0.6137 0.0964,-0.0248 0.66636,-0.15044 0.76048,-0.17133 0.74889,-0.20887 1.51962,-0.32455 2.26556,-0.54234 0.36733,-0.0857 0.74111,-0.15018 1.1039,-0.25486 0.12877,-0.0372 0.29467,-0.0251 0.38139,-0.12724 2.51409,-2.96242 -5.752004,-4.42835 -9.340262,-6.50052 -2.625191,0.0875 -5.257372,0.004 -7.877826,-0.16856 -1.569985,-0.16916 -3.14678,-0.25095 -4.720431,-0.37691 -1.096206,-0.0774 -2.194296,-0.0945 -3.288824,-0.19143 -0.495694,-0.0599 -1.1381,-0.0616 -1.59485,0.18204 -0.0895,0.0477 -0.168963,0.11227 -0.253445,0.16841 -0.39439,0.29257 -0.813794,0.5456 -1.200676,0.84932 -0.360524,0.3614 -0.576472,0.80787 -0.704411,1.29544 -0.0818,0.4304 -0.09701,0.87345 -0.061,1.30926 1.247297,3.79576 0.05488,0.39941 9.613011,5.86827 0.08057,0.0461 0.182558,0.0366 0.275178,0.0427 0.37126,0.0248 0.756803,0.006 1.128971,0.008 0.521494,-0.0566 1.033899,-0.16727 1.54772,-0.26846 0.164058,-0.0323 0.33137,-0.0498 0.492975,-0.0927 0.379211,-0.1007 0.631986,-0.2283 0.989054,-0.38532 0.954818,-0.41751 1.814391,-0.99483 2.632128,-1.63422 0.190296,-0.14837 0.37995,-0.29757 0.570889,-0.44512 0.440685,-0.34052 0.897305,-0.66089 1.326613,-1.01565 0.753531,-0.62268 1.432089,-1.33113 2.116926,-2.02627 1.607526,-1.88232 3.103496,-3.8555 4.5408,-5.86965 0.82238,-1.1028 1.54553,-2.27346 2.31256,-3.41364 0.23026,-0.34228 0.74829,-1.05317 0.99055,-1.38838 1.09687,-1.53149 2.36618,-2.92531 3.6709,-4.28004 1.15524,-1.06894 2.30524,-2.14339 3.47298,-3.1989 0.75518,-0.65206 0.3883,-0.33914 1.09991,-0.93965 0,0 -9.06745,-5.61684 -9.06745,-5.61684 v 0 c -0.65035,0.63622 -0.30987,0.30868 -1.02275,0.98125 -1.19181,1.06542 -2.427655,2.08555 -3.473447,3.30256 -0.662858,0.72174 -1.3219,1.44687 -1.969926,2.18202 -0.176511,0.20024 -1.126252,1.28939 -1.299607,1.50696 -0.177789,0.22313 -0.338142,0.45961 -0.507214,0.68942 -1.129789,1.58143 -2.080871,3.27702 -3.139823,4.9055 -1.396532,1.97898 -2.857815,3.92735 -4.564454,5.65267 -0.228156,0.2262 -0.448699,0.46035 -0.68447,0.6786 -1.0424,0.96497 -2.204794,1.79136 -3.399546,2.55473 -0.80786,0.5205 -1.629672,1.0272 -2.530959,1.3728 -0.894559,0.27901 -1.847051,0.4504 -2.783986,0.32925 -0.244705,-0.0408 -0.499223,-0.0687 -0.733099,-0.15979 -0.09423,-0.0367 -0.181801,-0.0892 -0.268277,-0.1416 -0.07016,-0.0425 -0.271457,-0.18395 -0.200618,-0.14257 9.171025,5.35714 12.515218,4.6659 8.846352,5.36786 -0.0482,-0.001 -0.0984,0.0107 -0.144592,-0.003 -0.22387,-0.0668 -0.113314,-0.43972 -0.135462,-0.60142 0.0083,-0.24235 0.04772,-0.45972 0.268319,-0.60013 0.339019,-0.23901 0.677548,-0.49843 1.065628,-0.64974 0.485027,-0.0442 0.964938,-0.023 1.45075,0.0122 1.062477,0.0419 2.126171,0.0551 3.187597,0.12076 1.535311,0.0826 3.0666,0.24616 4.605697,0.24644 2.263461,-0.0115 4.550807,-0.0655 6.800927,0.22891 0.39281,0.0514 0.77931,0.14294 1.16896,0.21441 -2.89034,-1.81315 -5.933582,-3.40279 -8.671027,-5.43946 -0.217585,-0.16189 0.426641,-0.36739 0.528148,-0.61888 0.0402,-0.0996 -0.206894,0.0581 -0.311542,0.0822 -0.387056,0.0894 -0.782177,0.14541 -1.162761,0.26246 -0.743681,0.17605 -1.479527,0.38131 -2.225313,0.54882 -0.901245,0.24535 -1.756608,0.62415 -2.645931,0.90818 -1.126863,0.3943 -2.27262,0.73047 -3.429947,1.02381 -1.03369,0.25991 -2.069029,0.52331 -3.122261,0.69233 -1.024257,0.12592 -2.047409,0.22405 -3.077099,0.0828 -0.529986,-0.0561 -1.054086,-0.10812 -1.587264,-0.0976 -0.525375,-0.0291 -1.05214,-0.0824 -1.546797,-0.27526 -0.196664,-0.0961 -0.257881,-0.13494 -0.461396,-0.20133 -0.273129,-0.0891 -0.580885,-0.12121 -0.78614,-0.3438 -0.176853,-0.11262 -0.08105,-0.0638 -0.289206,-0.14287 3.061073,1.76345 6.122144,3.5269 9.183217,5.29035 0.05138,0.0299 -0.11176,-0.046 -0.17103,-0.0505 -0.06248,-0.005 -0.12601,0.007 -0.186531,0.0233 -0.06563,0.0176 -0.125749,0.0515 -0.188624,0.0773 -0.503902,0.26812 -0.03553,-0.10875 0.06245,-0.26046 0.240822,-0.19979 0.405514,-0.25386 0.720172,-0.14784 0.336164,-0.002 0.672325,-0.004 1.008494,-0.004 0.367607,0.003 0.735227,-0.005 1.102829,0.001 0.34695,8e-4 0.693867,0.002 1.040802,-0.004 0.488873,-0.004 0.977616,-0.0137 1.466479,-0.0198 0.647465,5.3e-4 1.294916,0.007 1.942383,0.003 0.649475,-0.002 1.298951,0.005 1.948379,-10e-4 0.793292,-0.003 1.586468,-0.0259 2.379315,-0.0515 1.103506,-0.0494 2.203575,-0.13372 3.301715,-0.25403 1.218467,-0.0812 2.442926,-0.0791 3.653456,-0.26342 0.18074,-0.0298 0.36489,-0.0434 0.54222,-0.0893 0.15871,-0.0411 0.5905,-0.0695 0.46133,-0.17046 -2.84333,-2.2222 -5.854159,-4.2213 -8.781241,-6.33195 -0.06333,0.0138 -0.125379,0.0362 -0.189977,0.0414 -0.137194,0.0112 -0.701098,-0.008 -0.793178,-0.01 -1.400995,-0.0434 -2.802874,-0.12287 -4.195665,-0.28288 -0.204258,-0.0395 -0.415491,-0.0525 -0.612772,-0.11851 -0.112903,-0.0378 -0.403889,-0.25235 -0.303554,-0.18825 15.067557,9.62545 11.03775,2.86722 8.689935,6.08705 -0.07878,0.10804 0.603229,-0.57961 0.339469,-0.21374 1.006004,-0.48976 2.053958,-0.88784 3.063883,-1.36972 0.16958,-0.0924 0.35588,-0.15922 0.50875,-0.27725 2.85563,-2.20481 -5.590901,-4.58754 -8.629228,-6.53289 -0.08046,-0.0515 -0.174895,0.0807 -0.268248,0.10101 -0.314674,0.0686 -0.645959,0.0385 -0.958482,0.12197 -1.695151,0.28763 -3.351504,0.74994 -5.019479,1.16126 -1.510176,0.32461 -0.827027,0.1986 -2.281693,0.43375 -0.251933,0.0407 -0.952272,-0.0424 -0.756031,0.12077 2.753694,2.28939 5.745036,4.27681 8.617553,6.41522 0.192215,-0.0243 0.06767,-0.0229 0.366287,0.0738 -3.028225,-1.73412 -6.141437,-3.32762 -9.084675,-5.20237 -0.0011,-5.3e-4 0.532267,-0.50101 0.610685,-0.5649 0.02609,-0.0212 -0.03921,0.0561 -0.06626,0.0762 -0.638709,0.47288 -0.05755,-0.0735 -0.757267,0.66362 3.02236,2.02373 5.998668,4.118 9.067083,6.0712 0.08384,0.0534 0.173824,-0.1002 0.269185,-0.12819 0.170251,-0.05 0.346781,-0.0763 0.522036,-0.10403 0.854048,-0.13508 1.722017,-0.22729 2.586995,-0.1577 0.183399,0.0282 0.366797,0.0564 0.550199,0.0846 0.125708,0.0468 0.245284,0.11572 0.377131,0.14044 0.0849,0.0159 0.171974,-0.0173 0.258257,-0.0213 0.508215,-0.0239 1.018294,-0.0101 1.526644,-0.008 0.79975,0.0274 1.633487,0.0235 2.415738,0.21789 0.18649,0.0463 0.70199,0.30674 0.5385,0.20577 -9.02642,-5.57485 -11.3701,-2.88124 -8.596264,-5.77983 0.236985,-0.11835 -0.453173,0.32117 -0.420145,0.3449 9.698149,6.9706 5.522828,6.97602 9.532859,5.90756 1.0503,-0.23886 2.13015,-0.44477 3.2103,-0.31662 3.61576,1.85931 -1.87976,-0.94774 -8.425397,-5.77048 -0.112659,-0.083 0.243922,-0.18205 0.273,-0.31893 0.01392,-0.0655 -0.131456,-0.0254 -0.197363,-0.0371 -0.527378,-0.0937 -0.225343,-0.0191 -0.768178,-0.18711 2.994017,1.718 6.031718,3.36203 8.982048,5.154 0.0966,0.0587 -0.21513,0.0693 -0.32203,0.10591 -0.0857,0.0294 -0.16511,0.0906 -0.25568,0.092 -0.15727,0.002 -0.0761,-0.20343 -0.0255,-0.32137 0.0448,-0.10438 0.10858,-0.19956 0.16286,-0.29935 0.0891,-0.11324 0.16981,-0.23355 0.26718,-0.33974 0.60062,-0.65509 1.43981,-1.04697 2.21103,-1.45624 0,0 -9.108428,-5.86986 -9.108428,-5.86986 z" /></g><path
           style="fill:#000000;fill-opacity:1;stroke-width:0.264583"
           id="path873"
           d="m 99.4252,95.425018 c -1.647047,0.209542 -3.313932,0.255209 -4.973203,0.289896 -1.258472,0.01892 -2.51583,0.06175 -3.774583,0.04923 -0.903748,-0.02811 -1.807485,-0.02753 -2.711495,-0.03254 -0.509974,0.0013 -1.022376,-0.01553 -1.52881,0.06067 -0.200469,0.03016 -0.396867,0.08309 -0.596006,0.121055 -0.445209,0.214858 -0.908042,0.217384 -1.389395,0.233889 -0.66294,-0.01595 -1.353992,0.09839 -2.00619,-0.04865 -0.06092,-0.04528 -0.132893,-0.07862 -0.182764,-0.135845 -0.0542,-0.0622 -0.194604,-0.255579 -0.122859,-0.214852 3.032863,1.721649 6.011611,3.537178 9.035629,5.274319 0.103016,0.0592 -0.18887,-0.14676 -0.26634,-0.23683 -0.184626,-0.21466 -0.294143,-0.46281 -0.42219,-0.71106 -0.184947,-0.425211 -0.342779,-0.860234 -0.464117,-1.307731 -0.03091,-0.113983 -0.05049,-0.231278 -0.08881,-0.342988 -0.04355,-0.12696 -0.104114,-0.24743 -0.15617,-0.371144 -2.408566,-3.372228 -0.368195,-0.621104 -9.887165,-5.965455 -0.16126,-0.09054 -0.362701,-0.07251 -0.543938,-0.10932 -0.456184,-0.09266 -0.910349,-0.190688 -1.363527,-0.296942 -2.599087,-2.742441 -0.960652,-0.980384 9.062465,5.189151 0.05324,0.03277 -0.541763,0.639175 -0.116681,0.380566 0.456189,-0.186994 0.885357,-0.430681 1.359652,-0.570828 0.08299,-0.02916 0.167984,-0.05316 0.248978,-0.08749 0.402611,-0.170625 0.162652,-0.111146 0.562967,-0.250891 0.274352,-0.09577 0.555252,-0.176168 0.830122,-0.272122 0.727848,-0.249131 1.493377,-0.296272 2.254814,-0.340616 1.385522,-0.0642 2.773674,-0.07525 4.160557,-0.07176 1.413084,-0.02326 2.823112,-0.09653 4.230639,-0.222356 1.37458,-0.106838 2.74565,-0.229129 4.12411,-0.274817 0.87415,0.03127 1.73435,-0.102037 2.59831,-0.205536 0.79413,-0.04981 1.58436,-0.124344 2.3766,-0.196792 0.087,-0.0063 0.17486,-0.0051 0.26097,-0.01894 0.15608,-0.02514 0.30656,-0.07873 0.46231,-0.105789 0.21802,-0.03788 0.38976,-0.0429 0.60555,-0.106569 0.63512,-0.08729 1.27769,-0.09967 1.91782,-0.10529 0.49333,-0.0307 0.9909,0.02209 1.48387,-0.003 0.28812,-0.01466 0.57428,-0.05611 0.86187,-0.07903 0.84425,-0.05516 1.69043,-0.06217 2.53613,-0.06058 0.84502,-0.01455 1.68986,-0.02532 2.53496,-0.01243 0.49316,0.03596 0.98885,-0.0168 1.48192,0.0051 0.2559,0.01138 0.51023,0.04606 0.76545,0.0679 0.57438,0.03774 1.15,0.04847 1.68757,0.271272 0.21965,0.131038 0.53222,0.04135 0.73317,0.204796 0.0414,0.0337 0.0608,0.08847 0.0979,0.126825 0.0442,0.04557 0.0965,0.08241 0.14483,0.123614 0.0666,0.04111 0.13229,0.08372 0.19979,0.123314 0.16082,0.09433 0.6519,0.362135 0.49045,0.268901 -30.195012,-17.436189 21.72302,12.551497 -8.57197,-4.958752 0.43947,0.291023 0.89146,0.560165 1.33787,0.841862 0.16593,0.118324 0.46611,0.32267 0.60515,0.464704 0.40246,0.411141 0.64094,0.972312 0.85532,1.494753 0.30011,0.762272 0.35919,1.574763 0.37932,2.384737 -0.0402,1.513607 -0.45815,2.9826 -0.82219,4.442373 -0.5708,2.24005 -1.18063,4.46872 -1.87529,6.67376 -0.44724,1.36255 -0.85014,2.74305 -1.45642,4.04668 -0.35841,0.77067 -0.70337,1.36072 -1.11515,2.10205 -0.57886,1.00464 -1.16699,2.0093 -1.82497,2.96513 -0.51755,0.75181 -1.09005,1.47074 -1.64982,2.19132 -0.68389,0.82542 -1.27996,1.71705 -1.93053,2.56719 -0.64631,0.87974 -1.20334,1.81781 -1.74545,2.7641 -0.62294,1.11844 -1.29264,2.21447 -1.87159,3.35665 -0.42808,0.86764 -0.65022,1.80322 -0.79438,2.75377 -0.0472,0.49406 -0.12097,1.01851 0.0915,1.48736 0.043,0.095 0.1043,0.1806 0.15646,0.27089 0.8306,0.86731 1.76115,1.63745 2.71341,2.36696 0.75655,0.56162 1.53794,1.08855 2.32451,1.60687 0.49999,0.29793 1.03378,0.56426 1.41315,1.01699 0.32303,0.28189 0.50227,0.64977 0.60124,1.05894 0.0318,0.14222 0.0553,0.28524 0.0651,0.43048 10e-4,0.0189 -0.0101,-0.0444 -0.0285,-0.0491 -0.0346,-0.009 -0.0708,0.009 -0.10623,0.014 -0.68728,0.0296 -1.37556,0.0625 -2.06433,0.0731 -0.91288,-0.023 -1.822,0.0608 -2.73325,0.0993 -1.21351,0.0662 -2.42948,0.0708 -3.64437,0.0553 -0.64585,0.0343 -1.27658,-0.0978 -1.91019,-0.19355 -0.43058,-0.065 -0.60541,-0.0771 -1.04266,-0.12117 -0.92109,-0.054 -1.816147,-0.29632 -2.696789,-0.55722 -0.723334,-0.29756 -1.489011,-0.45624 -2.230535,-0.6945 -0.439113,-0.11782 -0.869691,-0.27403 -1.320112,-0.34665 -0.131668,-0.0212 -0.264949,-0.0308 -0.397423,-0.0462 -0.134892,-0.0231 -0.269785,-0.0461 -0.404675,-0.0692 -0.726853,-0.13984 -1.461479,-0.16883 -2.198828,-0.17791 -1.088043,0.0277 -2.176438,0.0339 -3.264672,0.0497 -1.454425,-0.002 -2.907112,0.0679 -4.360998,0.0986 -0.973965,0.0289 -1.948047,0.006 -2.922042,0.004 -0.549989,-0.005 -1.099868,-0.0208 -1.649875,-0.0236 -0.243264,0.002 -0.531122,0.012 -0.749242,0.13959 -0.125243,0.0733 -0.228489,0.179 -0.345689,0.26455 -0.298672,0.21801 -0.333169,0.23035 -0.640797,0.41705 -0.329515,0.1945 -0.670684,0.40248 -1.050658,0.48287 -0.441584,0.0934 0.05738,-0.0637 -0.401629,0.0956 -0.313494,0.15523 -0.537882,0.43114 -0.837258,0.60355 -0.0435,0.0452 -0.09878,0.0815 -0.130509,0.13562 -2.199121,3.75186 3.432069,2.8442 9.271328,6.10229 0.203198,0.11337 0.174048,-0.25306 0.38952,0.0995 0.02702,0.0255 0.04455,0.0829 0.08108,0.0763 0.14672,-0.0266 0.814356,-0.59576 0.967716,-0.72184 0.627867,-0.53721 0.978207,-1.2867 1.314114,-2.0239 0.46586,-1.16296 0.682617,-2.39189 0.837925,-3.62815 0.09451,-0.82787 0.136155,-1.659 0.137591,-2.49182 -0.266499,-4.60013 -1.047046,-2.61956 -9.66766,-6.68679 -0.254712,-0.12017 -0.33737,0.45107 -0.506056,0.6766 -0.752361,1.05613 -1.400836,2.17949 -1.987727,3.33432 -0.358089,0.65044 -0.480472,1.31681 -0.526031,2.04631 -0.02939,0.54812 -0.02812,1.09731 -0.03706,1.64604 -0.01992,0.39909 0.0159,0.79313 0.0797,1.18649 0.01198,0.42216 0.119737,0.82288 0.276296,1.21252 0.01355,0.1707 0.12346,0.31219 0.169884,0.47114 0.04805,0.1645 0.05099,0.24641 0.137017,0.39775 0.07954,0.16077 0.14546,0.35851 0.157033,0.5409 0.254645,4.01296 -12.129823,-6.02393 9.758907,5.25372 0.44827,-0.5581 0.77121,-1.20212 1.151146,-1.80678 0.415428,-0.81511 0.958557,-1.55079 1.442583,-2.32434 0.883631,-1.39044 1.574578,-2.88245 2.253827,-4.37921 1.112311,-2.36957 2.560309,-4.55574 3.915026,-6.78884 1.807035,-2.86065 3.790545,-5.60504 5.895112,-8.25299 1.66601,-2.09297 3.4977,-4.03811 5.39416,-5.92119 0.60095,-0.51709 1.09128,-1.16913 1.72222,-1.65375 0.0631,-0.0485 0.28407,-0.0651 0.21481,-0.1043 -3.16953,-1.79535 -6.22126,-3.8626 -9.603955,-5.21412 -0.399468,-0.1596 -0.424194,0.7485 -0.636291,1.12275 -0.321564,0.50828 -0.655744,1.0088 -0.964692,1.52485 -0.251254,0.41968 -1.828967,3.21497 -2.078464,3.66754 -0.457099,0.82913 -1.103532,1.98848 -1.462013,2.89761 -0.127783,0.32407 -0.202724,0.66655 -0.304086,0.99983 0.473803,4.50291 -0.03177,1.90404 10.079631,6.19299 0.43763,0.18563 0.87872,-0.36395 1.3087,-0.56668 1.01724,-0.47961 2.31824,-1.16343 3.24531,-1.77818 0.59475,-0.39437 1.14912,-0.84648 1.72368,-1.26973 0.91882,-0.80712 2.26139,-1.82988 2.85555,-2.95821 0.85289,-1.61966 0.81141,-3.81737 -0.17451,-5.37243 -0.29664,-0.46789 -0.76177,-0.80458 -1.14266,-1.20687 -3.44556,-1.84642 -6.73734,-4.01415 -10.33667,-5.53926 -0.61236,-0.25947 -1.327313,0.14868 -1.968504,0.32529 -1.536936,0.42332 -2.493719,0.97596 -3.750834,1.94861 -0.537088,0.41555 -1.054584,0.86342 -1.512118,1.36523 -0.40717,0.44656 -0.712168,0.97655 -1.068252,1.46483 -0.186693,0.46597 -0.454898,0.90708 -0.560073,1.39792 -1.029869,4.80628 9.907941,7.73151 10.461961,7.95957 0.63703,0.26223 1.2953,-0.47043 1.93393,-0.72874 0.73294,-0.29645 1.45316,-0.6234 2.17974,-0.9351 0.75701,-0.4446 1.55904,-0.8202 2.27104,-1.3338 2.0805,-1.50075 3.89715,-3.51052 4.67443,-5.99994 0.50783,-1.62642 0.31396,-2.07514 0.15156,-3.65418 -0.21117,-0.45586 -0.33904,-0.96054 -0.63351,-1.3676 -0.28708,-0.39685 -0.64999,-0.76046 -1.0781,-0.99842 -3.40933,-1.89502 -6.8071,-3.84254 -10.39295,-5.37758 -0.57526,-0.24625 -1.25624,0.0208 -1.872957,0.12678 -1.673291,0.28744 -2.698085,0.78479 -4.2732,1.4023 -1.868811,0.99481 -3.348133,2.07306 -4.443018,3.91625 -0.406395,0.68415 -0.75373,1.54122 -0.762493,2.35854 -0.0033,0.30804 0.111872,0.60588 0.167804,0.90882 2.611687,3.61543 1.326947,2.05286 10.575784,5.77342 0.39754,0.15992 0.78481,-0.35198 1.14565,-0.58306 0.67333,-0.43121 1.70471,-1.3049 2.12283,-1.99392 0.28032,-0.46193 0.3984,-1.00453 0.5976,-1.5068 0.0332,-1.05767 0.21797,-1.99824 -0.32935,-2.98329 -0.23969,-0.43141 -0.57242,-0.84625 -1.00107,-1.09085 -3.37511,-1.92603 -6.749387,-3.89912 -10.341407,-5.38181 -0.425717,-0.17572 -3.671906,0.79559 -3.963926,0.87601 -1.960105,0.78734 -3.756118,1.89958 -5.425364,3.18459 -0.623914,0.4803 -1.567566,1.2825 -2.119108,1.89486 -0.205878,0.22858 -0.370795,0.49096 -0.556192,0.73644 -0.0695,0.23518 -0.195847,0.46063 -0.208507,0.70554 -0.01225,0.23721 -0.07141,0.58351 0.135869,0.69951 3.257386,1.82295 6.568365,3.58182 10.026321,4.98761 0.314095,0.12769 0.579896,-0.35526 0.843378,-0.56865 0.724829,-0.58705 0.898128,-0.8889 1.469697,-1.61311 0.64733,-1.00722 1.097965,-1.98589 1.148223,-3.19729 0.02019,-0.48669 -0.02833,-0.67249 -0.09825,-1.13233 -0.0424,-0.14867 -0.07297,-0.30125 -0.127206,-0.44602 -1.340168,-3.57723 -6.466404,-4.13991 -9.989833,-5.61572 -0.335648,-0.14059 -0.540388,0.48857 -0.790917,0.7525 -0.331533,0.34928 -1.493784,1.73775 -1.778664,2.07523 -1.443278,1.91662 -2.72366,3.99622 -3.576016,6.24666 -0.03665,0.19962 -0.110302,0.3959 -0.10995,0.59886 2.65e-4,0.22873 -0.0794,0.55197 0.112162,0.67696 3.114607,2.03219 6.344611,3.88797 9.610529,5.66683 0.224066,0.12205 1.148996,-0.25961 1.293577,-0.34736 0.216758,-0.13156 0.389573,-0.32465 0.584359,-0.48697 0.139555,-0.1741 0.294532,-0.33689 0.418664,-0.52231 0.202562,-0.30257 0.319103,-0.59407 0.404788,-0.94279 0.969431,-3.94541 -5.248118,-3.65229 -9.669348,-5.60465 -0.238572,-0.10535 -0.324038,0.40873 -0.486056,0.6131 -0.657415,0.84129 -1.304946,1.69904 -1.812814,2.64166 -0.227536,0.42232 -0.332462,0.69227 -0.516522,1.1232 -0.196302,0.0833 -0.100232,0.50627 -0.300133,0.61801 -0.03883,0.0217 -0.03936,-0.0864 -0.03032,-0.12997 0.03396,-0.16373 0.0075,-0.55338 0.156154,-0.47672 9.277218,5.34615 12.379036,6.93108 9.049295,5.22585 -0.285615,-0.44435 -0.355574,-0.99823 -0.424675,-1.51308 -0.06164,-0.56708 -0.05317,-1.13745 -0.117824,-1.70406 -0.07116,-0.6557 -0.19068,-1.30585 -0.279173,-1.95998 -0.07769,-0.82111 -0.145364,-1.64269 -0.255492,-2.46022 -0.139668,-0.75333 -0.206975,-1.51635 -0.254286,-2.28009 -0.03073,-0.42927 0.01603,-0.85943 -0.04964,-1.28547 -0.04948,-0.44564 -0.149318,-0.88232 -0.216641,-1.32562 -0.05486,-0.56691 -0.0532,-1.13773 -0.05633,-1.70681 -0.01741,-0.6965 -0.02609,-1.39249 -0.02622,-2.0892 -0.01656,-0.90147 -0.02635,-1.80247 -0.01209,-2.70417 0.04702,-0.81206 -0.01691,-1.618999 -0.0932,-2.426542 -0.07662,-0.700267 -0.134548,-1.402768 -0.157564,-2.106882 0.009,-0.605653 -0.01326,-1.210795 -0.01794,-1.816333 0.01794,-0.490149 -0.07969,-1.031256 0.195069,-1.466779 0.02487,-0.0092 0.04826,-0.03074 0.07458,-0.02759 0.03719,0.0045 0.06391,0.04618 0.101278,0.04867 0.07131,0.0048 0.14157,-0.01992 0.212613,-0.02772 0.347369,-0.03819 0.689626,-0.09674 1.036323,-0.142497 1.194983,-0.100444 2.394492,-0.140536 3.592296,-0.197554 1.764895,-0.08389 3.531203,-0.11091 5.297863,-0.103536 1.621713,-0.03536 3.226969,0.214492 4.81773,0.499179 2.24987,0.185483 4.49326,0.439158 6.7313,0.733303 1.56765,0.206944 3.143,0.360828 4.70747,0.591793 0.58776,0.08677 1.17369,0.185561 1.76133,0.273103 0.95482,0.101529 1.87675,0.384686 2.83682,0.43347 0.64979,0.003 1.29469,0.08086 1.94106,0.149053 0.12326,0.02609 0.24482,0.06211 0.36977,0.07827 0.16075,0.0208 0.32367,0.01879 0.4852,0.03231 0.82324,0.06884 1.64605,0.147587 2.46915,0.219017 0.98751,0.07214 1.97786,0.08042 2.96746,0.0962 0.80294,0.02695 1.59091,-0.166573 2.37637,-0.306665 0.11182,-0.01601 0.22341,-0.03367 0.33545,-0.04798 0.27462,-0.03507 0.54273,-0.07957 0.81056,-0.152734 0.37564,-0.102626 0.0945,-0.07204 0.42016,-0.08838 0.0394,0.0217 0.10943,0.02098 0.1182,0.06509 0.0192,0.09627 0.0381,0.338669 -0.0474,0.29061 -3.0941,-1.737513 -6.08518,-3.652604 -9.14372,-5.451977 -0.0663,-0.03903 0.12239,0.09941 0.15984,0.166663 0.10813,0.194215 0.15356,0.547675 0.19147,0.747671 0.16935,1.314214 0.17809,2.641898 0.13668,3.964175 -0.05,0.504415 0.0186,1.05978 -0.19585,1.536734 -0.19926,0.443159 -0.47681,0.815187 -0.7453,1.219965 -0.73466,1.058156 -1.37094,2.176454 -1.9936,3.302383 -0.20847,0.37696 -0.42621,0.74905 -0.62202,1.13274 -0.42237,0.82767 -0.62959,1.35705 -0.98741,2.2024 -0.77709,1.96629 -1.18674,4.03888 -1.60937,6.10128 -0.42978,2.22287 -0.69849,4.47221 -1.08705,6.70147 -0.29043,1.58208 -0.68656,3.14221 -0.98607,4.72219 -0.22526,1.30452 -0.28662,2.62863 -0.45698,3.9401 -0.17271,1.10835 -0.531,2.18481 -1.04009,3.18418 -0.29936,0.58768 -0.46588,0.81504 -0.82265,1.36833 -0.55736,0.78204 -1.19949,1.60393 -2.15007,1.91853 -0.15822,0.0524 -0.32497,0.0742 -0.48745,0.11128 -0.4843,0.0663 -0.74677,0.12069 -1.24826,0.10776 -0.45973,-0.0119 -1.2495,-0.12771 -1.67853,-0.19595 -1.29506,-0.20598 -1.16009,-0.19917 -2.49714,-0.50117 -0.76666,-0.2125 -1.596629,-0.40574 -2.326013,-0.74165 -0.290865,-0.13395 -1.109525,-0.64004 -0.830863,-0.48226 2.808826,1.59426 5.617656,3.18853 8.426486,4.7828 -0.15903,-0.13236 -0.33742,-0.24442 -0.47707,-0.39708 -0.12945,-0.14149 -0.21481,-0.31774 -0.32221,-0.47662 -0.0223,-0.30908 -0.10402,-0.6196 -0.0669,-0.92725 0.12823,-1.06205 0.58299,-2.13576 0.99912,-3.10169 0.73761,-1.71215 1.63908,-3.33665 2.52962,-4.97165 1.23091,-2.08952 2.40275,-4.22809 3.82635,-6.19694 0.21727,-0.30049 0.4526,-0.5875 0.6789,-0.88125 1.02394,-1.35786 2.44196,-2.29962 3.71062,-3.40119 0.24227,-0.22903 0.77947,-0.71305 0.98874,-0.99759 2.8339,-3.85319 -8.9287,-7.18145 -9.028,-7.23286 -0.43592,-0.22573 -0.93538,0.29831 -1.40307,0.44747 -0.61815,0.16916 -1.24486,0.30969 -1.85447,0.50746 -1.28886,0.41815 -3.33358,1.24515 -4.55846,1.78156 -1.47941,0.64788 -2.618329,1.1945 -4.004041,1.99685 -0.502031,0.29068 -0.98247,0.61715 -1.473706,0.92573 -0.913749,0.70093 -1.955249,1.41506 -2.473745,2.49294 -0.223499,0.46462 -0.369716,1.18536 -0.33336,1.70892 0.01992,0.2868 0.115576,0.56324 0.173363,0.84486 0.128868,0.26054 0.2305,0.53643 0.386599,0.78162 0.229084,0.35984 0.819163,1.02961 1.197851,1.24296 3.311974,1.86597 6.590529,3.80597 10.020059,5.4459 0.38159,0.18247 2.19456,-0.31371 2.48821,-0.38226 0.91591,-0.33322 1.65967,-0.49383 2.38485,-1.21216 0.50676,-0.50197 1.42256,-2.01338 1.64043,-2.70584 0.42025,-1.33574 0.28428,-2.1836 0.25033,-3.55517 -0.17799,-1.53075 -0.53079,-3.03879 -1.11866,-4.46582 -0.15058,-0.36551 -0.29971,-0.73582 -0.5092,-1.07107 -0.55244,-0.88408 -0.94681,-1.16973 -1.68353,-1.86147 -3.71129,-2.73314 -2.78107,-2.10713 -10.861676,-6.10844 -0.340119,-0.16842 -0.759196,-0.0666 -1.137867,-0.041 -0.707663,0.0479 -1.84049,0.33025 -2.492441,0.5673 -0.47842,0.17395 -0.934064,0.4051 -1.401094,0.60764 -0.881861,0.41902 -1.897319,0.8654 -2.720818,1.39935 -0.43425,0.28157 -0.836695,0.60978 -1.243537,0.92968 -0.715962,0.56294 -1.395378,1.12128 -1.980213,1.82437 -0.236585,0.28441 -0.421666,0.608 -0.632499,0.912 -0.125458,0.27394 -0.309071,0.52814 -0.376373,0.82183 -0.128897,0.56249 -0.07024,1.36072 0.520459,1.70554 5.559139,3.24515 6.80561,5.93658 11.309268,5.2853 0.46405,-0.0671 0.91884,-0.1874 1.378257,-0.2811 2.174594,-0.64889 4.283874,-1.55665 6.251784,-2.68978 0.7803,-0.4493 2.06606,-1.31545 2.83314,-1.82292 1.47467,-1.15928 3.00716,-2.25618 4.32703,-3.59768 0.60271,-0.61259 0.89904,-0.99797 1.4346,-1.64669 0.87489,-1.28844 1.52938,-2.70983 2.06558,-4.16768 0.22966,-0.67652 0.40719,-1.36049 0.35406,-2.08017 -0.0279,-0.37749 -0.0869,-0.54619 -0.17849,-0.91256 -0.0643,-0.15103 -0.11465,-0.30877 -0.19281,-0.45311 -0.10096,-0.186466 -0.46633,-0.70056 -0.64343,-0.806859 -4.74349,-2.847149 -6.79093,-4.931391 -11.00497,-6.027697 -1.20154,-0.271431 -2.4255,-0.344398 -3.65191,-0.373695 -1.560029,0.01281 -3.118465,0.05049 -4.675286,0.152659 -2.084576,0.138224 -4.173117,0.183272 -6.261622,0.204674 -1.536964,0.02962 -3.066692,-0.09103 -4.593383,-0.250643 -0.279842,-0.0719 -0.571119,-0.08808 -0.852054,-0.154323 -0.106807,-0.02519 -0.208031,-0.07086 -0.314671,-0.09673 -0.106241,-0.02577 -0.21794,-0.02708 -0.32281,-0.05796 -0.113221,-0.03334 -0.216678,-0.09413 -0.327891,-0.133657 -0.123399,-0.04386 -0.25019,-0.07752 -0.375287,-0.116282 -0.831885,-0.276884 -1.72071,-0.344768 -2.590808,-0.411432 -0.424051,0.03449 -0.96611,0.03796 -1.33163,0.290885 -0.254867,0.176361 -0.354173,0.339858 -0.543885,0.579975 -0.07003,0.115858 -0.149969,0.226279 -0.210084,0.347578 -0.181174,0.365561 -0.248516,0.639595 -0.361366,1.037145 -0.171958,0.605785 -0.303313,1.207672 -0.414311,1.827371 -0.04889,0.3496 -0.162912,1.106168 -0.178443,1.456571 -0.06479,1.461582 0.120886,2.93413 0.215794,4.39006 0.218919,2.86912 0.869927,5.67335 1.5176,8.46885 0.544364,2.39107 1.17574,4.75936 1.910792,7.09852 0.422068,1.30507 0.848754,2.62215 1.052917,3.98309 0.03599,0.23994 0.05567,0.48204 0.08351,0.72306 0.161655,1.42806 0.102174,2.86129 -0.04762,4.28651 -0.13539,1.09752 -0.295675,2.19177 -0.449898,3.28675 -0.14216,0.8298 -0.217127,1.66639 -0.286308,2.50461 -0.0296,0.76712 -0.0816,1.53316 -0.136832,2.29893 -0.01392,0.65996 -0.04078,1.31797 -0.15649,1.96866 -0.01156,0.17959 -0.115359,0.79581 0.129773,0.94112 3.193724,1.89323 6.443046,3.69504 9.735097,5.4116 0.190834,0.0995 0.430438,-2.7e-4 0.64565,10e-4 0.267901,0.002 0.535784,0.006 0.803674,0.009 0.316021,0.002 0.632039,0.003 0.94806,0.005 2.497821,0.0585 4.981456,-0.32478 7.447982,-0.67239 1.52178,-0.16611 3.03758,-0.38163 4.5578,-0.56052 1.19784,-0.14096 2.39111,-0.26942 3.58441,-0.44623 0.39187,-0.0651 0.78409,-0.12817 1.1756,-0.19545 0.85905,-0.14762 1.63337,-0.29757 2.49536,-0.4312 1.18522,-0.18374 2.37777,-0.32416 3.56676,-0.48084 1.5637,-0.17348 3.1317,-0.30509 4.68887,-0.53316 1.12968,-0.2136 2.26151,-0.4121 3.40432,-0.54122 0.8169,-0.0339 1.55765,-0.38284 2.25294,-0.78503 0.80177,-0.48295 1.58132,-1.01028 2.23034,-1.69222 0.13923,-0.14629 0.26207,-0.30737 0.3931,-0.46105 0.27136,-0.3997 0.44147,-0.60859 0.63159,-1.05976 0.51305,-1.21748 0.46021,-2.57002 0.46545,-3.86245 -0.032,-0.4406 -0.0422,-0.88334 -0.0961,-1.32181 -0.091,-0.74077 -0.41221,-2.37377 -0.55595,-3.10047 -0.29661,-1.49953 -0.61569,-2.99461 -0.91894,-4.49281 -0.082,-0.44115 -0.16627,-0.8819 -0.24606,-1.32346 -0.10753,-0.59511 -0.23113,-1.18821 -0.30494,-1.78844 -0.0164,-0.13313 0.0984,-0.34041 -0.0208,-0.40186 -9.97136,-5.13876 -8.70803,-8.1097 -10.09728,-3.9434 -0.27741,1.64504 -0.44428,3.30677 -0.60861,4.96626 -0.15581,1.12963 -0.067,2.2773 -0.18713,3.40866 -0.0334,0.31456 -0.0927,0.62583 -0.13907,0.93874 -0.19018,0.72803 -0.25457,1.15394 -0.61754,1.82386 -0.5822,1.07452 -1.51932,1.94935 -2.50505,2.64841 -0.38015,0.26959 -0.79298,0.48984 -1.18947,0.73476 -0.84354,0.37644 -1.48459,0.75853 -2.42802,0.81823 -0.99505,0.063 -1.55023,-0.22554 -2.41661,-0.69505 -0.47936,-0.25977 -1.87196,-1.11801 -1.39403,-0.85561 2.41125,1.32388 4.7969,2.69386 7.19535,4.04078 -1.30437,-0.94056 -2.57139,-1.95495 -3.65415,-3.15062 -0.41191,-0.45486 -1.05964,-1.25221 -1.2946,-1.84896 -0.13954,-0.35439 -0.17414,-0.74158 -0.26121,-1.11238 0.0406,-0.49843 0.0271,-1.00426 0.12186,-1.49529 0.11327,-0.58701 0.29689,-1.16006 0.49907,-1.72268 0.6984,-1.94345 1.74808,-3.7678 2.88236,-5.48529 0.36112,-0.54681 0.75697,-1.06988 1.13547,-1.60482 0.90892,-1.25739 1.95318,-2.40578 2.93704,-3.60228 0.33526,-0.4077 0.9951,-1.23309 1.27515,-1.71396 0.14919,-0.25618 0.25289,-0.53627 0.37934,-0.8044 0.16198,-0.64577 0.31577,-0.90848 0.12108,-1.5896 -0.0742,-0.2596 -0.1439,-0.57439 -0.37138,-0.71982 -0.34843,-0.22276 -6.7484,-5.59445 -10.58901,-5.87638 -0.301,-0.0221 -0.60362,0.002 -0.90544,0.004 -0.57907,0.0942 -1.30322,0.15249 -1.82005,0.47939 -0.38197,0.2416 -0.69323,0.58068 -1.02484,0.88777 -0.89609,0.82987 -1.28643,1.25576 -2.03469,2.25374 -0.34553,0.46085 -0.65685,0.94637 -0.98528,1.41956 -0.821716,1.27739 -1.590961,2.58938 -2.259441,3.9539 -0.160859,0.32835 -0.645769,1.33521 -0.721299,1.762 -0.04398,0.24849 -2.07e-4,0.5047 -2.65e-4,0.75705 3.332155,1.72918 6.509145,3.79758 9.996445,5.18754 0.43225,0.17229 0.80592,-0.46699 1.19076,-0.72857 1.44811,-0.98431 1.82158,-1.3675 3.19642,-2.56123 2.02774,-1.76063 1.20953,-1.0001 3.01164,-2.82493 0.97921,-1.2903 2.14924,-2.71074 2.06028,-4.43746 -0.0326,-0.6319 -0.17264,-0.82218 -0.41557,-1.37064 -2.51986,-3.46933 -0.55186,-0.89541 -10.00547,-6.11994 -0.21103,-0.11662 -0.47654,-0.0795 -0.71723,-0.0938 -0.3542,-0.021 -0.70966,-0.004 -1.06441,-0.0119 -2.18796,-0.0463 -0.38145,-0.0497 -2.72412,-0.0188 -1.961723,0.12496 -0.99971,0.0452 -2.886344,0.23551 0,0 8.410894,5.98197 8.410894,5.98197 v 0 c 1.78818,-0.18223 0.8636,-0.12213 2.77459,-0.16696 1.31515,0.0599 2.65407,0.074 3.92333,0.47534 0.22417,0.0709 0.84168,0.4171 0.64036,0.29566 -6.72102,-4.05401 -11.65553,-6.80424 -8.15601,-4.85005 0.13843,0.12836 0.29574,0.23897 0.41528,0.38508 0.25658,0.3136 0.48401,0.77201 0.50078,1.18414 0.0497,1.22291 -0.73938,2.30739 -1.33288,3.291 -0.41235,0.45982 -0.79772,0.94535 -1.23705,1.37947 -0.94566,0.93446 -2.21075,1.96678 -3.34576,2.65741 -0.52446,0.31912 -1.07437,0.60393 -1.648601,0.8211 -0.389665,0.14736 -1.554276,0.0137 -1.221523,0.26435 2.669884,2.01117 5.695444,3.50061 8.543164,5.25091 -0.19055,0.0177 -0.46002,0.20859 -0.57164,0.0532 -0.14246,-0.19841 0.0323,-0.48957 0.0874,-0.72754 0.0769,-0.33228 0.18931,-0.65591 0.30678,-0.9761 0.50234,-1.36922 1.18032,-2.66726 1.989,-3.87992 1.06631,-1.40344 2.2974,-3.11636 4.02002,-3.76486 0.56623,-0.21317 1.0101,-0.15561 1.5984,-0.1523 0.26718,0.0539 0.5413,0.0806 0.80155,0.16161 0.25485,0.0793 0.96249,0.45704 0.73541,0.31677 -2.7666,-1.70892 -5.57891,-3.34275 -8.36068,-5.02686 -0.17489,-0.10589 0.38044,0.16334 0.53948,0.29181 0.13018,0.10516 0.26348,0.23398 0.3103,0.39463 0.0544,0.18665 -0.017,0.38846 -0.0255,0.5827 -0.0734,0.22636 -0.12172,0.46246 -0.22023,0.67908 -0.21647,0.47599 -0.78595,1.31899 -1.06148,1.72119 -0.88074,1.28564 -1.83856,2.51705 -2.68526,3.82643 -1.14952,1.76643 -2.2975,3.52134 -3.27295,5.39286 -0.63848,1.225 -1.207814,2.38915 -1.621292,3.70917 -0.171961,0.54898 -0.268544,1.11879 -0.402815,1.67818 0.01418,0.47426 -0.05988,0.95949 0.04257,1.42276 0.156043,0.70562 0.872707,1.67046 1.314907,2.18923 1.09272,1.28192 2.43376,2.32818 3.72106,3.40046 3.3718,2.00546 6.72323,4.04557 10.1154,6.01639 0.96092,0.55828 2.00328,1.0629 3.13416,1.15814 1.4011,0.118 2.67787,-0.59738 3.85359,-1.23685 1.56731,-1.04685 3.20729,-2.13192 4.18471,-3.80045 0.40279,-0.68759 0.53326,-1.26918 0.76171,-2.01911 0.13415,-0.61474 0.27772,-1.22115 0.37222,-1.84361 0.12804,-0.84342 0.0727,-1.69583 0.12211,-2.54492 0.0371,-0.77313 0.0895,-1.54251 0.16018,-2.3134 0.0554,-0.60431 0.0895,-1.07964 0.20869,-1.67549 0.0456,-0.22807 0.11565,-0.45058 0.17347,-0.67587 1.60818,-3.54628 0.13895,-0.0563 -9.31522,-5.38352 -0.12185,-0.0687 0.31447,-0.0768 0.41932,0.0157 0.35214,0.3109 0.58613,1.51195 0.6569,1.80411 0.10878,0.44914 0.20218,0.90187 0.30328,1.35281 0.60331,2.85853 1.36166,5.71017 1.52244,8.63783 -0.0407,1.45923 -0.0766,2.922 -1.00562,4.12406 -0.1091,0.12154 -0.21171,0.24924 -0.3273,0.36463 -0.60226,0.60127 -1.35712,1.02775 -2.11794,1.3933 -0.65886,0.26078 -1.32932,0.44863 -2.03554,0.53009 -1.12251,0.20213 -2.24876,0.38277 -3.37371,0.57061 -1.48815,0.23424 -2.97987,0.44301 -4.46766,0.67932 -2.40783,0.37795 -4.81346,0.77109 -7.22617,1.11664 -2.65319,0.37619 -5.292708,0.85231 -7.962767,1.10473 -2.517947,0.26002 -5.048517,0.53617 -7.582968,0.36441 -0.573313,-0.0463 -1.246516,-0.0791 -1.816389,-0.20135 -0.212468,-0.0456 -0.809858,-0.302 -0.623541,-0.19018 4.98579,2.99233 12.397568,4.55282 8.28366,5.28412 0.02468,-0.54939 -0.01318,0.0793 0.06562,-0.5897 0.05732,-0.48648 0.0588,-0.97685 0.07509,-1.46562 0.01958,-0.76781 0.103291,-1.53071 0.133433,-2.29759 0.01638,-0.82727 0.09004,-1.65105 0.205306,-2.47051 0.09869,-1.11838 0.261519,-2.23073 0.388897,-3.3461 0.07797,-0.98688 0.118502,-1.97133 0.135761,-2.96111 0.0047,-0.26766 0.02043,-0.53536 0.01371,-0.80297 -0.0061,-0.24521 -0.03481,-0.48934 -0.05222,-0.73401 -0.03573,-0.35854 -0.116374,-1.22252 -0.173675,-1.57168 -0.191537,-1.16716 -0.626941,-2.26833 -0.979125,-3.39148 -0.816525,-2.35308 -1.623274,-4.71225 -2.204146,-7.13735 -0.650314,-2.70944 -1.194554,-5.44796 -1.419463,-8.22983 -0.12043,-1.8269 -0.244605,-3.67503 0.07277,-5.48992 0.132051,-0.65746 0.0974,-0.54184 0.266374,-1.168986 0.133922,-0.497036 0.254326,-1.018734 0.588251,-1.425755 0.04059,-0.02848 0.07566,-0.06719 0.121761,-0.08544 0.04042,-0.01601 0.293746,-0.01762 0.309716,-0.01844 0.282501,-0.01476 0.560782,-0.0213 0.841349,0.03392 0.841271,0.104754 1.660591,0.283848 2.460955,0.568773 0.740238,0.209351 1.498767,0.317717 2.268874,0.329882 1.486236,0.06595 2.975171,0.103783 4.462174,0.03354 2.097303,-0.04981 4.193893,-0.122918 6.289623,-0.219094 1.60478,-0.03575 3.21059,-0.02625 4.81412,0.05359 1.15298,0.05772 2.31165,0.184526 3.40797,0.566777 0.20737,0.08378 0.41933,0.156978 0.62211,0.251323 0.20204,0.094 0.78269,0.42615 0.59072,0.31298 -2.86663,-1.690009 -5.75162,-3.348801 -8.6153,-5.043825 -0.13461,-0.07968 0.29223,0.115712 0.42612,0.196601 0.11799,0.07128 0.21908,0.167561 0.32423,0.256701 0.0949,0.08049 0.18377,0.167923 0.27566,0.251884 0.0645,0.10093 0.14213,0.194574 0.19344,0.302791 0.0553,0.116584 0.085,0.2437 0.12402,0.366671 0.0369,0.116252 0.0854,0.230306 0.10389,0.350864 0.0695,0.452199 -0.0883,0.900559 -0.17525,1.336529 -0.4049,1.381363 -0.94581,2.734974 -1.71827,3.954184 -0.18188,0.25369 -0.35171,0.51647 -0.54566,0.76106 -0.73609,0.92828 -1.6079,1.74068 -2.49394,2.52233 -0.34856,0.30749 -0.69689,0.61579 -1.05976,0.90626 -0.40447,0.32377 -0.827429,0.62373 -1.241148,0.9356 -0.413927,0.29595 -0.816591,0.60831 -1.241782,0.88783 -2.326584,1.52951 -4.912558,2.6667 -7.656547,3.17581 -0.448691,0.0319 -0.896408,0.10734 -1.346078,0.0956 -0.397155,-0.0104 -1.509877,-0.38435 -1.180859,-0.16166 2.617226,1.77138 5.488638,3.14176 8.135442,4.86863 0.218639,0.14265 -0.535977,0.0229 -0.78006,-0.0697 -0.588018,-0.22307 -0.277506,-0.62516 -0.170659,-1.03902 0.147667,-0.26544 0.263888,-0.55101 0.443003,-0.79633 0.226091,-0.30966 0.492035,-0.58977 0.765346,-0.85868 1.362618,-1.34066 3.034978,-2.26906 4.801012,-2.96794 1.29469,-0.40321 2.39217,-0.79673 3.77769,-0.64695 0.34111,0.0369 1.29191,0.41337 1.00401,0.22673 -3.28151,-2.12735 -11.289041,-6.60513 -7.035507,-4.22079 0.58805,0.42964 1.357487,0.9372 1.832767,1.50376 0.2535,0.30218 0.44754,0.65133 0.63588,0.99788 0.7144,1.31455 1.17771,2.75191 1.43458,4.22192 0.0714,1.17212 0.22876,1.90484 -0.12127,3.04373 -0.22211,0.72266 -0.82201,1.67324 -1.41713,2.15974 -0.66925,0.54711 -1.35886,0.65143 -2.159746,0.87786 -0.404995,0.032 -0.809021,0.1115 -1.214985,0.096 -0.371306,-0.0142 -1.408964,-0.38971 -1.099397,-0.1842 2.629419,1.74557 5.428758,3.22068 8.130588,4.85192 0.23277,0.14053 -0.49452,-0.23053 -0.72223,-0.37911 -0.21567,-0.14073 -0.41197,-0.31048 -0.6016,-0.48473 -0.17334,-0.15928 -0.32319,-0.34238 -0.4848,-0.51356 -0.099,-0.185 -0.22884,-0.35653 -0.29693,-0.55498 -0.11569,-0.33712 -0.13722,-0.87894 -0.027,-1.21903 0.31386,-0.96883 1.2041,-1.64928 1.90071,-2.31888 0.42593,-0.3185 0.83546,-0.66019 1.27778,-0.9555 2.48285,-1.65762 5.46797,-2.9258 8.40141,-3.48868 0.6642,-0.12746 1.34378,-0.1546 2.01566,-0.23189 4.66211,0.96114 1.95754,0.57804 -7.13058,-5.25391 -0.0656,-0.0421 0.147,0.0995 0.15271,0.17724 0.009,0.11697 -0.0539,0.2325 -0.11527,0.33244 -0.16857,0.27441 -0.62333,0.70819 -0.83225,0.92094 -0.1949,0.16979 -0.38643,0.34354 -0.58471,0.50938 -0.65813,0.55043 -1.35819,1.05395 -1.94424,1.68637 -0.20077,0.21667 -0.38098,0.45174 -0.56212,0.68509 -0.20686,0.26647 -0.40096,0.54259 -0.60144,0.81389 -0.51942,0.76734 -0.84418,1.2277 -1.33147,2.03172 -1.05372,1.73859 -1.99071,3.54903 -2.94477,5.34272 -1.142784,2.21123 -2.338217,4.39599 -3.346711,6.67332 -0.227338,0.51337 -0.469857,1.02135 -0.660479,1.54945 -0.154334,0.42757 -0.248232,0.87461 -0.372348,1.31191 0.09072,0.39928 0.174075,1.18423 0.59899,1.45072 3.169917,1.98808 6.430278,3.82907 9.681238,5.68167 0.26105,0.14876 0.558,0.22443 0.84407,0.31632 0.72876,0.23406 1.5357,0.40503 2.27664,0.5784 2.01665,0.43379 4.04781,0.98906 6.0851,0.36153 0.20534,-0.0875 0.41888,-0.15774 0.61602,-0.26237 1.01139,-0.53679 1.70804,-1.4993 2.30082,-2.44383 0.33092,-0.52661 0.61145,-0.94474 0.88993,-1.50394 0.53853,-1.08136 0.90715,-2.25136 1.20308,-3.41836 0.005,-0.0255 0.26479,-1.43137 0.27354,-1.49516 0.0273,-0.19925 0.0319,-0.40097 0.0508,-0.6012 0.0566,-0.60028 0.11272,-1.2009 0.1867,-1.7993 0.24467,-1.61562 0.54706,-3.22168 0.78678,-4.83806 0.33306,-2.22189 0.66359,-4.44608 1.08344,-6.65338 0.41364,-2.00451 0.85245,-4.01351 1.49686,-5.95803 0.12555,-0.34614 0.23824,-0.69721 0.37666,-1.03841 0.77851,-1.91904 1.81845,-3.7336 3.18763,-5.29295 0.48075,-0.57033 1.0664,-1.16528 1.33085,-1.88335 0.16406,-0.44549 0.0599,-0.95273 0.063,-1.409915 -0.0461,-1.340837 -0.0245,-2.680557 -0.0168,-4.021865 -0.0298,-1.405562 0.0108,0.36639 -0.027,-0.896638 -0.004,-0.130699 0.10164,-0.320046 -0.007,-0.392203 -15.79241,-10.449732 -5.8236,-7.213131 -9.83473,-5.550418 -0.4796,0.163573 -0.99101,0.200662 -1.48368,0.314274 -0.74078,0.132721 -1.48631,0.194347 -2.23937,0.157092 -0.9513,-0.0026 -1.90238,-0.02863 -2.85086,-0.106485 -0.62209,-0.04722 -1.24001,-0.107873 -1.85849,-0.191098 -0.20628,-0.02776 -0.41208,-0.05898 -0.61812,-0.08847 -0.1705,-0.03013 -0.34007,-0.06607 -0.51149,-0.0904 -0.13373,-0.01897 -0.26885,-0.02627 -0.40327,-0.03941 -0.65698,-0.06754 -1.3137,-0.102253 -1.97079,-0.162298 -0.86898,-0.12868 -1.74036,-0.232386 -2.61497,-0.316606 -2.10072,-0.248663 -4.20773,-0.443108 -6.303869,-0.73094 -2.301848,-0.275879 -4.607041,-0.53965 -6.896872,-0.902893 -1.61562,-0.231971 -3.24539,-0.397196 -4.880105,-0.325224 -1.789189,0.03435 -3.578733,0.03598 -5.367266,0.09811 -1.269412,0.04535 -2.549345,0.0127 -3.808976,0.190505 -0.816599,0.144061 -1.529918,0.19112 -2.0315,0.942232 -0.315362,0.619948 -0.459255,1.272757 -0.404243,1.969728 -0.0051,0.615489 -0.03031,1.230778 0.0082,1.84591 0.01754,0.73615 0.03778,1.471171 0.14175,2.201566 0.10259,0.771409 0.17308,1.546217 0.163248,2.325174 0.01381,0.897147 0.0046,1.793579 -0.01347,2.690474 -0.0011,0.690436 -0.01201,1.380068 -0.02609,2.070328 0.0035,0.59333 0.0173,1.18611 0.033,1.77922 0.0019,0.33594 0.0039,0.68234 0.07349,1.013 0.01143,0.0543 0.03565,0.10547 0.04565,0.16004 0.01125,0.0614 0.01188,0.12428 0.01783,0.18642 0.02011,0.16925 0.08043,0.32613 0.103513,0.49194 0.03437,0.24685 -0.0033,0.5043 0.03569,0.75126 0.05297,0.80362 0.167886,1.60064 0.276485,2.39826 0.139244,0.79618 0.194243,1.59915 0.247348,2.40463 0.05547,0.64198 0.112376,1.28994 0.23599,1.92176 0.0209,0.26496 0.07365,0.52461 0.09597,0.78871 0.02611,0.30896 -7.93e-4,0.62134 0.04047,0.92958 0.04315,0.61809 0.11248,1.23118 0.223949,1.84098 0.421566,3.96842 0.0087,0.9491 9.509604,5.94515 0.131066,0.0689 0.614307,-0.62815 0.671991,-0.73793 0.07094,-0.13501 0.200779,-0.6212 0.235297,-0.74174 0.391514,-1.28608 1.026149,-2.424 2.039239,-3.33054 3.649022,-1.65401 0.205581,0.0369 -8.842187,-5.50285 -0.09304,-0.057 0.175815,-0.16064 0.284911,-0.16107 0.145762,-5.3e-4 0.07011,0.31083 -0.0024,0.43728 -0.05861,0.10221 -0.151903,0.18015 -0.227854,0.27022 -0.352153,0.14663 -0.406099,0.22912 -0.818208,0.13016 -0.163719,-0.0393 -0.606957,-0.28893 -0.463503,-0.20078 2.892018,1.77709 5.842752,3.4586 8.713319,5.27014 0.122849,0.0775 -0.321341,0.0474 -0.433477,-0.045 -0.104323,-0.0859 -0.06576,-0.26216 -0.09864,-0.39324 0.03674,-0.2106 0.05997,-0.42401 0.11023,-0.6318 0.484331,-2.00234 1.598941,-3.81121 2.909409,-5.37395 0.524309,-0.53789 1.17479,-1.30465 1.87099,-1.66743 0.17507,-0.0912 0.752677,0.0117 0.584984,-0.0924 -2.931719,-1.82109 -6.038938,-3.34643 -8.993294,-5.13055 -0.1197,-0.0723 0.281448,-0.0845 0.41665,-0.0489 0.113562,0.03 0.178282,0.15296 0.267425,0.22943 0.06349,0.12755 0.140166,0.24934 0.190461,0.38264 0.421179,1.1163 0.06436,2.17916 -0.518581,3.15807 -0.44223,0.5247 -0.647806,0.88001 -1.280353,1.19555 -0.221983,0.11074 -0.923835,0.0609 -0.717304,0.19831 2.804803,1.86624 5.897917,3.27099 8.712943,5.12177 0.172588,0.11348 -0.369731,0.23151 -0.576249,0.22783 -0.11358,-0.002 -0.159724,-0.16158 -0.239586,-0.24236 0.09932,-0.22012 0.167008,-0.45745 0.29795,-0.66035 0.411004,-0.63686 1.194853,-1.43034 1.737228,-1.90368 1.500084,-1.30914 3.183742,-2.31954 5.097489,-2.90234 0.66797,-0.12769 1.326237,-0.3261 2.003914,-0.38307 0.63,-0.053 2.38077,0.46085 1.89585,0.0552 -2.224753,-1.86103 -4.953025,-3.02279 -7.366525,-4.63151 -0.369105,-0.24602 0.892828,0.2332 1.218959,0.53388 0.646295,0.59585 0.615431,1.57756 0.703762,2.34114 -0.134604,0.38322 -0.184798,0.8076 -0.403812,1.14966 -0.371628,0.58042 -1.317297,1.26773 -1.960335,1.51159 -0.323344,0.12263 -1.302813,-0.0197 -1.021458,0.18141 6.583145,4.70448 11.613089,5.79688 7.592579,4.86105 -0.1642,-0.16366 -0.402001,-0.27758 -0.492607,-0.49097 -0.259879,-0.61206 -0.0011,-1.48441 0.237114,-2.02128 0.463343,-1.04495 1.087133,-1.81701 2.016273,-2.50779 0.55557,-0.41305 1.19758,-0.69486 1.79637,-1.04229 1.77657,-0.58957 2.35445,-0.92193 4.24178,-0.99566 0.60816,-0.0238 2.29233,0.52794 1.82021,0.14384 -2.22321,-1.80876 -4.88246,-3.00486 -7.27547,-4.58212 -0.38689,-0.255 0.8857,0.32259 1.24911,0.61007 0.36007,0.28485 0.58062,0.71136 0.87092,1.06704 0.39562,1.35298 0.68734,1.79329 0.39003,3.28595 -0.47552,2.38749 -2.17659,4.24008 -4.16643,5.52194 -0.71843,0.46282 -1.527273,0.76733 -2.290909,1.15099 -0.751408,0.23421 -1.480108,0.56047 -2.254226,0.70261 -0.637839,0.11713 -2.437209,-0.35308 -1.944309,0.0683 2.336104,1.9974 5.158994,3.3446 7.791504,4.93108 0.26374,0.15895 -0.5019,-0.37882 -0.66802,-0.63811 -0.17455,-0.27246 -0.31889,-0.59071 -0.32648,-0.91421 -0.01,-0.41661 0.1843,-0.81282 0.27645,-1.21923 0.27798,-0.44216 0.49366,-0.93026 0.83395,-1.32647 0.74654,-0.86923 2.00502,-1.78382 3.05372,-2.22923 0.59185,-0.25136 1.22017,-0.43789 1.85816,-0.5181 0.60402,-0.0759 2.29276,0.44517 1.82549,0.055 -2.1606,-1.80424 -4.76444,-2.99901 -7.14665,-4.49851 0.44053,0.27444 0.95277,0.45814 1.32159,0.82332 1.07796,1.06733 1.49541,3.03241 0.84095,4.42315 -0.50662,1.07654 -1.78043,2.01917 -2.62683,2.75774 -1.493226,0.97852 -1.833962,1.3023 -3.461536,1.98646 -0.528499,0.22216 -1.068408,0.42813 -1.62669,0.55848 -0.425751,0.0994 -1.653053,-0.13912 -1.305528,0.12616 5.857924,4.47158 11.576314,6.28125 7.706394,5.0204 0.005,-0.30703 -0.0407,-0.61901 0.0144,-0.9211 0.16638,-0.9123 0.71588,-2.14223 1.10837,-2.93172 0.87414,-1.75835 1.92974,-3.42722 3.29144,-4.85113 0.32014,-0.29416 1.29133,-0.60053 0.96041,-0.8825 -2.7316,-2.32749 -5.95989,-4.00009 -8.974972,-5.94641 -0.04339,-0.028 0.02887,0.11008 0.0032,0.15492 -0.09594,0.16786 -0.231613,0.30982 -0.354266,0.45928 -0.139959,0.17056 -1.035648,1.2008 -1.138497,1.31939 -1.800175,2.00303 -3.607406,4.00519 -5.279988,6.1169 -2.031105,2.7309 -3.910481,5.57119 -5.874649,8.35012 -1.54776,2.16044 -3.032945,4.37807 -4.212432,6.76555 -0.753014,1.40262 -1.514652,2.80758 -2.43787,4.10766 -0.540282,0.7429 -1.03749,1.51599 -1.496611,2.3118 -0.217254,0.32082 -0.419227,0.64823 -0.648835,0.96034 -0.02718,0.037 -0.191955,0.27359 -0.261707,0.32163 -0.01849,0.0127 -0.04476,0.004 -0.06714,0.005 3.158995,1.72734 6.33881,3.41714 9.476988,5.18202 0.04567,0.0257 -0.08935,0.0659 -0.141713,0.068 -0.108212,0.004 -0.190503,-0.3785 -0.196038,-0.45774 -0.02461,-0.10547 -0.0318,-0.17909 -0.09025,-0.27176 -0.02172,-0.0344 -0.06366,-0.0548 -0.08042,-0.0919 -0.06932,-0.15349 -0.05266,-0.35091 -0.173149,-0.48665 -0.04107,-0.14874 -0.05627,-0.22683 -0.120108,-0.36749 -0.02394,-0.0528 -0.0603,-0.0995 -0.08256,-0.15299 -0.02431,-0.0584 -0.03061,-0.1235 -0.05652,-0.18123 -0.02045,-0.0456 -0.06218,-0.0798 -0.08133,-0.12591 -0.02201,-0.053 -0.02694,-0.11165 -0.04041,-0.16747 -0.0088,-0.18561 -0.02714,-0.36397 -0.06165,-0.54677 -0.02175,-0.11523 -0.06473,-0.22654 -0.07795,-0.34306 -0.0082,-0.0721 -0.0016,-0.14511 -0.0024,-0.21766 -0.01889,-0.53914 -0.03375,-1.07834 -0.03449,-1.61787 0.01281,-0.58611 0.04121,-1.16961 0.265785,-1.7209 0.416904,-1.06824 0.916458,-2.1491 1.771237,-2.93912 3.018359,1.78287 -6.059736,-3.5268 -9.068305,-5.32614 -0.05286,-0.0316 0.135702,-0.0259 0.184404,0.0118 0.155667,0.12053 0.152802,0.60372 0.225674,0.77471 0.08897,0.79391 0.03725,1.60092 0.0255,2.39778 -0.0729,1.12003 -0.200943,2.25022 -0.678264,3.28109 -0.286518,0.55331 -0.581105,1.14141 -1.136883,1.46855 -0.100986,0.0532 -0.381183,0.24949 -0.456097,0.0431 -0.01416,-0.039 0.01942,-0.10012 -0.01479,-0.12357 -0.03987,-0.0273 -0.09618,0.01 -0.144277,0.0145 -0.10464,0.0392 -0.241388,0.0985 -0.355415,0.11058 -0.05128,0.005 -0.19861,-0.0346 -0.154509,-0.008 11.484062,6.96079 11.075191,2.43306 8.895313,6.02895 -0.0063,0.0104 0.0222,-0.01 0.03331,-0.0146 0.201591,-0.15358 0.38771,-0.33143 0.648975,-0.36903 0.548886,-0.18084 1.019387,-0.52533 1.514417,-0.8145 0.141327,-0.0834 0.437041,-0.27186 0.603096,-0.31733 0.241718,-0.0662 0.607812,0.0606 0.858377,0.019 0.531096,-0.002 1.06207,-0.017 1.593009,-0.029 0.942856,-0.0161 1.88495,-0.0721 2.827203,-0.10762 1.440963,-0.0675 2.882365,-0.12194 4.325246,-0.0806 1.124921,0.0148 2.251454,0.009 3.374451,0.0848 0.69865,0.0487 1.39324,0.1468 2.08017,0.28346 0.70678,0.14265 1.38855,0.37392 2.08211,0.56886 0.74111,0.19732 1.46268,0.45923 2.20926,0.63662 0.17244,0.0391 0.72883,0.16678 0.90076,0.19865 0.61145,0.11332 1.23448,0.13321 1.84989,0.21609 1.00086,0.13851 2.00013,0.28043 3.01406,0.19541 1.24458,-0.028 2.48935,-0.029 3.73409,-0.0493 0.89713,-0.0497 1.79362,-0.0948 2.69243,-0.0996 0.84675,-0.0322 1.74923,0.004 2.50019,-0.44655 0.52772,-0.42758 0.75584,-0.85051 0.6982,-1.53494 -0.0573,-0.54114 -0.12194,-1.08224 -0.37858,-1.5719 -0.22301,-0.28794 -0.11543,-0.12966 -0.31606,-0.47932 -0.0614,-0.0842 -0.14021,-0.15428 -0.21084,-0.23094 -0.2477,-0.26889 -0.48248,-0.54069 -0.8267,-0.69093 -0.85247,-0.47311 -1.64199,-1.04095 -2.4643,-1.56266 -0.21934,-0.15198 -0.84325,-0.5794 -1.05482,-0.74533 -0.5402,-0.42368 -1.04049,-0.9007 -1.56132,-1.3474 -0.47713,-0.29035 -0.66708,-0.35145 -0.67344,-0.9791 -0.007,-0.84466 0.2158,-1.65822 0.53693,-2.43582 0.52545,-1.135 1.0844,-2.25725 1.76957,-3.30598 0.56149,-0.89228 1.17048,-1.75294 1.74911,-2.63402 0.63831,-0.86763 1.29281,-1.72485 1.8314,-2.66036 1.14013,-1.77394 2.32649,-3.52153 3.35172,-5.36583 0.60264,-1.10888 0.57691,-1.03683 1.14177,-2.17671 0.33838,-0.68284 0.72579,-1.46003 0.99065,-2.17973 0.11526,-0.31321 0.19858,-0.63726 0.29545,-0.95663 0.10106,-0.33316 0.1989,-0.6673 0.29835,-1.00094 0.63686,-2.23097 1.24661,-4.46959 1.89394,-6.69755 0.17217,-0.59469 0.39682,-1.38687 0.58673,-1.98194 0.1556,-0.48755 0.36154,-1.01274 0.4798,-1.51622 0.0393,-0.16743 0.0542,-0.33967 0.0825,-0.50931 0.0288,-0.17257 0.0593,-0.34486 0.0889,-0.51729 0.0398,-0.910672 -0.0102,-1.84274 -0.22369,-2.73029 -0.19036,-0.624407 -0.42005,-1.213081 -0.70761,-1.799056 -0.0691,-0.14084 -0.12185,-0.290811 -0.20628,-0.423037 -0.0651,-0.10192 -0.15896,-0.182282 -0.23844,-0.273423 -0.1584,-0.152051 -0.25086,-0.253796 -0.42822,-0.377751 -0.0682,-0.04764 -0.14589,-0.08059 -0.21359,-0.128873 -0.2077,-0.148138 -0.39011,-0.328422 -0.63982,-0.412393 -3.16979,-1.842945 -6.45883,-3.494569 -9.50937,-5.528829 -2.89879,-1.933067 12.08343,6.944437 9.05323,5.224651 -3.19291,-1.812131 -6.36079,-3.668004 -9.54136,-5.501693 -0.24281,-0.139986 -0.48417,-0.283456 -0.73618,-0.406551 -0.0732,-0.02371 -0.14369,-0.05835 -0.21955,-0.07109 -0.12301,-0.02066 -0.25199,0.03297 -0.3739,-0.01503 -0.11877,-0.0217 -0.23202,-0.06754 -0.34995,-0.09341 -0.0689,-0.01511 -0.13856,-0.02614 -0.20784,-0.03922 -0.57404,-0.0399 -1.14915,-0.04129 -1.7235,-0.08284 -0.75777,-0.02907 -1.51739,-0.02164 -2.27552,-0.01095 -0.85929,0.01384 -1.71838,-0.0013 -2.57768,0.0076 -0.83552,0.03496 -1.67014,0.08649 -2.5055,0.124878 -0.79125,0.01937 -1.58323,-8.5e-5 -2.37446,0.03434 -0.6985,0.03744 -1.40074,0.06274 -2.08811,0.204102 -0.41564,0.03451 -0.81916,0.163693 -1.23743,0.185344 -0.7707,0.106052 -1.547898,0.140345 -2.320016,0.235143 -0.833551,0.08755 -1.670331,0.128698 -2.504662,0.207663 -1.361141,0.12885 -2.725328,0.198504 -4.086797,0.321363 -1.384212,0.09212 -2.77091,0.15032 -4.157882,0.174998 -1.436915,0.0088 -2.874698,-0.01206 -4.310515,0.05963 -0.84801,0.07626 -1.69327,0.200922 -2.492227,0.51019 -0.569499,0.190572 -1.119007,0.428276 -1.684644,0.6291 -0.5271,0.241422 -1.062696,0.480833 -1.542957,0.807606 -0.299818,0.244864 -0.507754,0.487487 -0.664909,0.855171 -0.0555,0.12986 -0.234942,0.331261 -0.116043,0.407474 3.069989,1.967862 6.260573,3.741632 9.422561,5.557994 0.06827,0.03922 0.157332,-0.0065 0.236,-0.0098 0.406924,0.08394 0.819081,0.171196 1.202045,0.338601 0.16501,0.07213 0.632859,0.343755 0.477803,0.252161 -8.777314,-5.184838 -12.021426,-6.257957 -8.461727,-5.052724 0.182663,0.111678 0.302932,0.148201 0.403905,0.348985 0.04821,0.09587 0.06347,0.205045 0.09333,0.308124 0.111027,0.383344 0.208732,0.771802 0.376293,1.13616 0.249663,0.729332 0.04823,0.160446 0.318418,0.87262 0.05143,0.135572 0.0287,0.33002 0.150971,0.407966 5.103895,3.253746 6.030802,5.976566 10.034426,5.698476 0.685247,-0.0526 1.373672,-0.0479 2.059438,-0.0938 0.303389,-0.0302 0.372387,-0.0256 0.652838,-0.0924 0.275553,-0.0657 0.536048,-0.19427 0.822693,-0.20957 0.65043,-0.0941 1.309359,-0.073 1.964957,-0.0726 0.875998,-0.004 1.75169,5e-5 2.627198,-0.0376 1.253763,-0.0281 2.510783,0.004 3.760623,-0.11554 1.70067,-0.13393 3.41296,-0.25691 5.11741,-0.12109 0,0 -8.779642,-6.378777 -8.779642,-6.378777 z" /></g></g><g
       id="g465"
       transform="matrix(2.1883668,0,0,2.1883668,78.739598,122.2396)">
<g
   id="g463">
	<g
   id="g461">
		<g
   id="g459">
			<path
   d="M 12,0 C 5.373,0 0,5.373 0,12 0,18.628 5.373,24 12,24 18.628,24 24,18.628 24,12 24,5.373 18.628,0 12,0 Z m 5.503,17.308 c -0.216,0.354 -0.676,0.464 -1.028,0.249 C 13.657,15.835 10.11,15.446 5.933,16.4 5.53,16.492 5.129,16.24 5.037,15.838 4.945,15.436 5.196,15.034 5.6,14.943 c 4.571,-1.045 8.492,-0.595 11.655,1.338 0.353,0.214 0.464,0.675 0.248,1.027 z m 1.469,-3.267 c -0.271,0.44 -0.847,0.578 -1.287,0.308 C 14.46,12.367 9.543,11.792 5.727,12.951 5.233,13.1 4.71,12.821 4.56,12.327 4.411,11.832 4.69,11.311 5.184,11.16 c 4.358,-1.323 9.776,-0.682 13.48,1.594 0.44,0.271 0.578,0.847 0.308,1.287 z m 0.126,-3.403 C 15.23,8.341 8.85,8.13 5.157,9.251 4.564,9.431 3.937,9.096 3.757,8.503 3.577,7.91 3.912,7.283 4.505,7.103 8.744,5.816 15.79,6.065 20.243,8.708 c 0.533,0.317 0.708,1.005 0.392,1.538 -0.315,0.533 -1.005,0.709 -1.537,0.392 z"
   fill="#1fdf64"
   data-original="#000000"
   id="path457" />
		</g>
	</g>
</g>















</g></g></svg>
