<?xml version="1.0" encoding="UTF-8" standalone="no"?>
<!-- Created with Inkscape (http://www.inkscape.org/) -->

<svg
   width="210mm"
   height="297mm"
   viewBox="0 0 210 297"
   version="1.1"
   id="svg430"
   xml:space="preserve"
   inkscape:export-filename="image.svg"
   inkscape:export-xdpi="30.78788"
   inkscape:export-ydpi="30.78788"
   xmlns:inkscape="http://www.inkscape.org/namespaces/inkscape"
   xmlns:sodipodi="http://sodipodi.sourceforge.net/DTD/sodipodi-0.dtd"
   xmlns="http://www.w3.org/2000/svg"
   xmlns:svg="http://www.w3.org/2000/svg"><sodipodi:namedview
     id="namedview432"
     pagecolor="#ffffff"
     bordercolor="#999999"
     borderopacity="1"
     inkscape:showpageshadow="0"
     inkscape:pageopacity="0"
     inkscape:pagecheckerboard="0"
     inkscape:deskcolor="#d1d1d1"
     inkscape:document-units="mm"
     showgrid="false" /><defs
     id="defs427" /><g
     inkscape:label="Calque 1"
     inkscape:groupmode="layer"
     id="layer1"
     inkscape:export-filename="intellify.svg"
     inkscape:export-xdpi="30.78788"
     inkscape:export-ydpi="30.78788"><g
       id="g642"
       transform="matrix(0.35277778,0,0,0.35277778,-18.472561,49.722293)"
       inkscape:label="g642"><path
         style="fill:#000000;fill-opacity:1;stroke:none;stroke-width:0;stroke-dasharray:none"
         d="m 505.26618,542.80828 c -0.95643,-0.25836 -3.85693,-1.64435 -6.44555,-3.07998 -29.07089,-16.12245 -64.52578,-25.33909 -108.13298,-28.1096 -9.56568,-0.60774 -32.11891,-0.50916 -41.73518,0.18241 -18.71899,1.34622 -33.72179,3.75252 -48.6889,7.8092 -5.86539,1.58976 -6.89979,1.76255 -9.67846,1.61671 -8.99372,-0.47206 -15.87778,-8.42184 -15.12128,-17.4622 0.44439,-5.31058 4.0003,-10.5871 8.75085,-12.98517 2.59136,-1.30811 11.1795,-3.72469 19.90606,-5.60128 49.92818,-10.73669 111.69422,-8.37889 161.85612,6.17855 13.40769,3.89103 25.6784,8.52742 36.9707,13.96905 9.78873,4.71709 15.66546,8.11876 17.94582,10.38769 3.36472,3.34787 5.15665,8.18212 4.72929,12.75863 -0.92687,9.92563 -10.83982,16.90679 -20.35649,14.33599 z"
         id="path2487"
         transform="matrix(0.75,0,0,0.75,52.363108,-140.94508)" /><path
         style="fill:#000000;fill-opacity:1;stroke:none;stroke-width:0;stroke-dasharray:none"
         d="m 482.85284,596.71797 c -0.95643,-0.39747 -3.39098,-1.71569 -5.41012,-2.92938 -14.94545,-8.98361 -37.63997,-17.49282 -58.7384,-22.0237 -24.87231,-5.34133 -54.18594,-6.7732 -79.02633,-3.86017 -10.508,1.23227 -22.00396,3.4615 -31.1074,6.03216 -5.43296,1.53418 -7.32021,1.8012 -9.88632,1.3988 -4.30361,-0.67488 -8.11624,-3.55684 -10.13013,-7.65735 -0.90154,-1.83564 -1.04486,-2.60583 -1.04317,-5.60594 0.002,-4.19475 0.75499,-6.13233 3.5376,-9.10717 2.42673,-2.59437 4.23898,-3.46472 11.17302,-5.36596 51.46376,-14.11086 112.18879,-10.37075 162.66194,10.01847 11.92902,4.81888 28.9214,13.81016 32.09262,16.98138 2.73312,2.73312 3.80608,5.34184 3.82791,9.30696 0.0153,2.77274 -0.14215,3.62655 -1.00999,5.4778 -1.37108,2.92478 -3.79719,5.48043 -6.42151,6.76438 -2.86027,1.39941 -7.87034,1.67073 -10.51972,0.56972 z"
         id="path2489"
         transform="matrix(0.75,0,0,0.75,52.363108,-140.94508)" /><path
         style="fill:#000000;fill-opacity:1;stroke:none;stroke-width:0;stroke-dasharray:none"
         d="m 465.05275,643.6641 c -0.75709,-0.2707 -3.56829,-1.74586 -6.24711,-3.27813 -35.76807,-20.45909 -79.69596,-26.79648 -130.1411,-18.7752 -3.29438,0.52384 -9.90245,1.74871 -14.6846,2.72195 -9.79699,1.99382 -10.94058,1.97517 -14.42611,-0.23529 -4.50631,-2.85782 -6.21244,-9.06026 -3.79545,-13.79795 1.06897,-2.09535 3.95512,-4.57436 6.17612,-5.30487 4.7662,-1.56765 26.2912,-5.36259 37.35705,-6.58619 10.599,-1.17198 14.05821,-1.3899 25.69805,-1.61885 36.15232,-0.71112 66.77816,5.79179 95.86906,20.35625 8.14798,4.07932 14.4179,7.8538 15.58246,9.38061 3.63522,4.76603 3.36003,10.33209 -0.71216,14.40428 -2.96803,2.96803 -7.07749,4.02016 -10.67621,2.73339 z"
         id="path2491"
         transform="matrix(0.75,0,0,0.75,52.363108,-140.94508)" /><path
         d="m 199.82286,139.23965 c -2.96415,-0.006 -5.80284,-1.18512 -7.89764,-3.28112 -2.09462,-2.09599 -3.27145,-4.93606 -3.2742,-7.89904 v -21.8186 C 188.63448,95.018322 184.16827,84.261069 176.22936,76.326392 168.29186,68.393125 157.53214,63.93225 146.30958,63.921314 h -10.18646 c -3.30867,0 -6.36517,1.765265 -8.02005,4.630208 -1.65365,2.864944 -1.65365,6.395508 0,9.260417 1.65502,2.864943 4.71134,4.630208 8.02005,4.630208 h 10.18646 c 6.31295,0.0055 12.36521,2.513542 16.83138,6.974416 4.46475,4.461934 6.97829,10.513131 6.98923,16.824327 v 21.8186 c -0.001,7.61506 2.93522,14.93661 8.19785,20.44029 -5.26274,5.50404 -8.19926,12.82524 -8.19785,20.4403 v 21.8186 c -0.011,6.31155 -2.52455,12.36239 -6.98923,16.82433 -4.46617,4.46087 -10.51843,6.96877 -16.83138,6.97441 h -10.18646 c -3.30867,0 -6.36517,1.76527 -8.02005,4.63021 -1.65365,2.86494 -1.65365,6.39551 0,9.26042 1.65502,2.86494 4.71134,4.6302 8.02005,4.6302 h 10.18646 c 11.22256,-0.011 21.98228,-4.47181 29.91978,-12.40507 7.93891,-7.93468 12.40508,-18.69158 12.42166,-29.9145 v -21.8186 c 0.003,-2.96277 1.17962,-5.80284 3.2742,-7.89905 2.09462,-2.09599 4.93325,-3.27561 7.89764,-3.28111 3.30729,0 6.36517,-1.76527 8.01864,-4.63021 1.65502,-2.86494 1.65502,-6.39551 0,-9.26042 -1.65365,-2.86494 -4.71135,-4.6302 -8.01864,-4.6302 z"
         id="path600"
         inkscape:label="path600"
         style="stroke-width:0.352778"
         transform="matrix(2.8346457,0,0,2.8346457,52.363108,-140.94508)" /><path
         d="m 39.869842,106.24082 c 0.01101,-6.31155 2.524548,-12.362394 6.989233,-16.824327 4.466167,-4.460875 10.518422,-6.968772 16.83138,-6.974417 h 10.186459 c 3.308667,0 6.365169,-1.765264 8.020049,-4.630208 1.653646,-2.864943 1.653646,-6.395508 0,-9.260416 -1.655021,-2.864944 -4.711347,-4.630209 -8.020049,-4.630209 H 63.690455 c -11.222566,0.0096 -21.983699,4.4704 -29.921199,12.405078 -7.9375,7.933266 -12.405077,18.691577 -12.420247,29.914499 v 21.8186 c -0.0028,2.96277 -1.180994,5.80284 -3.275612,7.89904 -2.093242,2.096 -4.933244,3.27562 -7.896225,3.28112 -3.3072892,0 -6.3651654,1.76526 -8.0186346,4.63021 -1.65502157,2.86494 -1.65502157,6.39551 0,9.26041 1.6536452,2.86495 4.7113454,4.63021 8.0186346,4.63021 2.962769,0.006 5.802842,1.18512 7.896225,3.28112 2.094618,2.09599 3.272825,4.93606 3.275612,7.89905 v 21.81859 c 0.01517,11.22257 4.482747,21.98123 12.420247,29.9145 7.9375,7.93468 18.698633,12.39555 29.921199,12.40508 h 10.186459 c 3.308667,0 6.365169,-1.76527 8.020049,-4.63021 1.653646,-2.86494 1.653646,-6.39551 0,-9.26042 -1.655021,-2.86494 -4.711347,-4.6302 -8.020049,-4.6302 H 63.690455 c -6.312958,-0.006 -12.365213,-2.51355 -16.83138,-6.97442 -4.464755,-4.46193 -6.978297,-10.51313 -6.989233,-16.82433 v -21.81859 c 0.0014,-7.61507 -2.935217,-14.93662 -8.19785,-20.4403 5.262739,-5.50404 8.199261,-12.82524 8.19785,-20.4403 z"
         id="path598"
         inkscape:label="path598"
         style="stroke-width:0.352778"
         transform="matrix(2.8346457,0,0,2.8346457,52.363108,-140.94508)" /></g><g
       id="g773"
       transform="matrix(3.8837697,0,0,3.8837697,58.394764,101.89476)">
<g
   id="g771">
	<g
   id="g769"
   inkscape:label="g769">
		<g
   id="g767"
   inkscape:label="g767">
			<path
   d="M 12,0 C 5.373,0 0,5.373 0,12 0,18.628 5.373,24 12,24 18.628,24 24,18.628 24,12 24,5.373 18.628,0 12,0 Z m 5.503,17.308 c -0.216,0.354 -0.676,0.464 -1.028,0.249 C 13.657,15.835 10.11,15.446 5.933,16.4 5.53,16.492 5.129,16.24 5.037,15.838 4.945,15.436 5.196,15.034 5.6,14.943 c 4.571,-1.045 8.492,-0.595 11.655,1.338 0.353,0.214 0.464,0.675 0.248,1.027 z m 1.469,-3.267 c -0.271,0.44 -0.847,0.578 -1.287,0.308 C 14.46,12.367 9.543,11.792 5.727,12.951 5.233,13.1 4.71,12.821 4.56,12.327 4.411,11.832 4.69,11.311 5.184,11.16 c 4.358,-1.323 9.776,-0.682 13.48,1.594 0.44,0.271 0.578,0.847 0.308,1.287 z m 0.126,-3.403 C 15.23,8.341 8.85,8.13 5.157,9.251 4.564,9.431 3.937,9.096 3.757,8.503 3.577,7.91 3.912,7.283 4.505,7.103 8.744,5.816 15.79,6.065 20.243,8.708 c 0.533,0.317 0.708,1.005 0.392,1.538 -0.315,0.533 -1.005,0.709 -1.537,0.392 z"
   fill="#1fdf64"
   data-original="#000000"
   id="path765"
   inkscape:label="path765" />
		</g>
	</g>
</g>















</g></g></svg>
