<?xml version="1.0"?>
<svg xmlns="http://www.w3.org/2000/svg" xmlns:xlink="http://www.w3.org/1999/xlink" xmlns:svgjs="http://svgjs.com/svgjs" version="1.1" width="13" height="13" x="0" y="0" viewBox="0 0 24 24" style="enable-background:new 0 0 13 13" xml:space="preserve"><g><path xmlns="http://www.w3.org/2000/svg" d="M7,0A4,4,0,0,0,3,4V20a4,4,0,0,0,8,0V4A4,4,0,0,0,7,0ZM8,20a1,1,0,0,1-2,0V4A1,1,0,0,1,8,4Z" fill="#afb1b3" data-original="#000000"/><path xmlns="http://www.w3.org/2000/svg" d="M17,0a4,4,0,0,0-4,4V20a4,4,0,0,0,8,0V4A4,4,0,0,0,17,0Zm1,20a1,1,0,0,1-2,0V4a1,1,0,0,1,2,0Z" fill="#afb1b3" data-original="#000000"/></g></svg>
